<?xml version="1.0" encoding="UTF-8"?>
<svg version="1.1" xmlns="http://www.w3.org/2000/svg" width="500" height="500">
<path d="M0 0 C0.7427417 0.35771484 1.4854834 0.71542969 2.25073242 1.08398438 C4.25760029 2.06324344 6.25514054 3.05903743 8.25 4.0625 C9.23226562 4.55073242 9.23226562 4.55073242 10.234375 5.04882812 C14.57824995 7.225075 18.8000922 9.55730751 23 12 C23 12.66 23 13.32 23 14 C23.556875 14.103125 24.11375 14.20625 24.6875 14.3125 C27.4769101 15.14178408 29.6139064 16.34299056 32 18 C32 18.66 32 19.32 32 20 C33.32 20.33 34.64 20.66 36 21 C36 21.66 36 22.32 36 23 C36.55945313 23.24234375 37.11890625 23.4846875 37.6953125 23.734375 C42.38755847 26.3111338 46.1116137 30.36228011 50 34 C50.98226562 34.91845703 50.98226562 34.91845703 51.984375 35.85546875 C53.3690727 37.19071296 54.69239977 38.58916817 56 40 C56 40.66 56 41.32 56 42 C56.66 42 57.32 42 58 42 C58 42.66 58 43.32 58 44 C58.66 44 59.32 44 60 44 C61.6354808 45.90412475 63.13794613 47.79800671 64.625 49.8125 C65.04523438 50.35970703 65.46546875 50.90691406 65.8984375 51.47070312 C69 55.62458147 69 55.62458147 69 59 C69.66 59 70.32 59 71 59 C86 80.06896552 86 80.06896552 86 89 C86.66 89 87.32 89 88 89 C91.48380173 97.57182831 94.48785445 106.14572904 96.75 115.125 C96.94811279 115.89811523 97.14622559 116.67123047 97.3503418 117.46777344 C100.58027542 130.76279283 101.40692812 143.88493844 101.375 157.5 C101.37478851 158.33493988 101.37457703 159.16987976 101.37435913 160.03012085 C101.34070058 173.37310611 100.43289512 186.04924563 97 199 C96.69521729 200.17925049 96.69521729 200.17925049 96.38427734 201.38232422 C91.15775538 221.22671074 82.38508257 239.92237615 71 257 C70.34 257 69.68 257 69 257 C68.82887695 257.89211182 68.82887695 257.89211182 68.65429688 258.80224609 C67.95099294 261.16461252 67.14560323 262.32793836 65.53125 264.1640625 C65.04269531 264.72867187 64.55414063 265.29328125 64.05078125 265.875 C63.53902344 266.4525 63.02726562 267.03 62.5 267.625 C58.87840054 271.55225501 58.87840054 271.55225501 56 276 C55.34 276 54.68 276 54 276 C54 276.66 54 277.32 54 278 C53.34 278 52.68 278 52 278 C51.67 278.99 51.34 279.98 51 281 C49.57421875 282.47265625 49.57421875 282.47265625 47.6875 284.0625 C46.62015625 284.96355469 46.62015625 284.96355469 45.53125 285.8828125 C44.6959375 286.58148438 43.860625 287.28015625 43 288 C41.96779234 288.89212233 40.93659465 289.78541416 39.90625 290.6796875 C38.83378088 291.59948042 37.76086582 292.51875366 36.6875 293.4375 C36.1721167 293.88681885 35.6567334 294.3361377 35.12573242 294.79907227 C31.34157692 298 31.34157692 298 28 298 C28 298.66 28 299.32 28 300 C21.25 304 21.25 304 19 304 C19 304.66 19 305.32 19 306 C16.31433412 307.44101533 13.62657941 308.87787947 10.9375 310.3125 C10.18533203 310.71662109 9.43316406 311.12074219 8.65820312 311.53710938 C-15.10404444 324.1897347 -41.49429951 330.38799874 -68.30273438 330.31567383 C-70.73353335 330.31252136 -73.1631008 330.33604977 -75.59375 330.36132812 C-89.99469759 330.41987337 -103.91845369 328.44812988 -117.8125 324.625 C-118.59020752 324.41657471 -119.36791504 324.20814941 -120.16918945 323.9934082 C-126.96826774 322.11835591 -133.49917076 319.7427197 -140 317 C-140 316.34 -140 315.68 -140 315 C-140.78632813 314.93941406 -141.57265625 314.87882812 -142.3828125 314.81640625 C-147.36327235 313.69230678 -151.41916349 311.37680206 -155.875 308.9375 C-156.75414062 308.46505859 -157.63328125 307.99261719 -158.5390625 307.50585938 C-160.69695524 306.34481926 -162.85027708 305.17607732 -165 304 C-165 303.34 -165 302.68 -165 302 C-165.99 302 -166.98 302 -168 302 C-168 301.34 -168 300.68 -168 300 C-169.98 299.34 -171.96 298.68 -174 298 C-174 297.34 -174 296.68 -174 296 C-174.7734375 295.6596875 -174.7734375 295.6596875 -175.5625 295.3125 C-178.89547005 293.51782382 -182.14703671 291.50034985 -185 289 C-185 288.34 -185 287.68 -185 287 C-185.66 287 -186.32 287 -187 287 C-187 286.34 -187 285.68 -187 285 C-187.56203125 284.7628125 -188.1240625 284.525625 -188.703125 284.28125 C-191.51894042 282.71052303 -193.47955416 280.78528536 -195.75 278.5 C-196.54921875 277.7059375 -197.3484375 276.911875 -198.171875 276.09375 C-200 274 -200 274 -200 272 C-200.66 272 -201.32 272 -202 272 C-203.54331236 270.32783424 -205.01114909 268.58548462 -206.4375 266.8125 C-207.21996094 265.84957031 -208.00242188 264.88664062 -208.80859375 263.89453125 C-211.66775661 260.11798994 -214.12775627 256.71011614 -215 252 C-215.66 252 -216.32 252 -217 252 C-223.28110113 243.18948247 -227.5753064 232.82693578 -232 223 C-232.60328125 221.69289063 -232.60328125 221.69289063 -233.21875 220.359375 C-250.33551015 180.88039595 -247.07002234 133.76490918 -232.625 94.1875 C-229.81030007 87.18730473 -226.37140649 80.48678224 -222.91699219 73.78564453 C-221.58977616 71.20117754 -220.29446338 68.60098697 -219 66 C-218.34 66 -217.68 66 -217 66 C-216.77699219 65.32582031 -216.55398437 64.65164062 -216.32421875 63.95703125 C-214.61534112 60.14104197 -212.31003992 57.02411944 -209.8125 53.6875 C-209.32144775 53.02613037 -208.83039551 52.36476074 -208.32446289 51.68334961 C-200.40706275 41.10906892 -200.40706275 41.10906892 -197 38 C-196.34 38 -195.68 38 -195 38 C-194.34 36.68 -193.68 35.36 -193 34 C-192.34 34 -191.68 34 -191 34 C-190.74089844 33.40703125 -190.48179687 32.8140625 -190.21484375 32.203125 C-183.35467249 19.76217134 -163.43207088 9.86820636 -151.08203125 3.9921875 C-148.40185737 2.71495642 -145.76895639 1.35053427 -143.125 0 C-99.65867027 -21.54418082 -43.52916047 -21.01379219 0 0 Z " fill="#F9C1D3" transform="translate(321,92)"/>
<path d="M0 0 C0.7427417 0.35771484 1.4854834 0.71542969 2.25073242 1.08398438 C4.25760029 2.06324344 6.25514054 3.05903743 8.25 4.0625 C9.23226562 4.55073242 9.23226562 4.55073242 10.234375 5.04882812 C14.57824995 7.225075 18.8000922 9.55730751 23 12 C23 12.66 23 13.32 23 14 C23.556875 14.103125 24.11375 14.20625 24.6875 14.3125 C27.4769101 15.14178408 29.6139064 16.34299056 32 18 C32 18.66 32 19.32 32 20 C33.32 20.33 34.64 20.66 36 21 C36 21.66 36 22.32 36 23 C36.55945313 23.24234375 37.11890625 23.4846875 37.6953125 23.734375 C42.38755847 26.3111338 46.1116137 30.36228011 50 34 C50.98226562 34.91845703 50.98226562 34.91845703 51.984375 35.85546875 C53.3690727 37.19071296 54.69239977 38.58916817 56 40 C56 40.66 56 41.32 56 42 C56.66 42 57.32 42 58 42 C58 42.66 58 43.32 58 44 C58.66 44 59.32 44 60 44 C61.6354808 45.90412475 63.13794613 47.79800671 64.625 49.8125 C65.04523438 50.35970703 65.46546875 50.90691406 65.8984375 51.47070312 C69 55.62458147 69 55.62458147 69 59 C69.66 59 70.32 59 71 59 C86 80.06896552 86 80.06896552 86 89 C86.66 89 87.32 89 88 89 C91.48380173 97.57182831 94.48785445 106.14572904 96.75 115.125 C96.94811279 115.89811523 97.14622559 116.67123047 97.3503418 117.46777344 C100.58027542 130.76279283 101.40692812 143.88493844 101.375 157.5 C101.37478851 158.33493988 101.37457703 159.16987976 101.37435913 160.03012085 C101.34070058 173.37310611 100.43289512 186.04924563 97 199 C96.69521729 200.17925049 96.69521729 200.17925049 96.38427734 201.38232422 C91.15775538 221.22671074 82.38508257 239.92237615 71 257 C70.34 257 69.68 257 69 257 C68.82887695 257.89211182 68.82887695 257.89211182 68.65429688 258.80224609 C67.95099294 261.16461252 67.14560323 262.32793836 65.53125 264.1640625 C65.04269531 264.72867187 64.55414063 265.29328125 64.05078125 265.875 C63.53902344 266.4525 63.02726562 267.03 62.5 267.625 C58.87840054 271.55225501 58.87840054 271.55225501 56 276 C55.34 276 54.68 276 54 276 C54 276.66 54 277.32 54 278 C53.34 278 52.68 278 52 278 C51.67 278.99 51.34 279.98 51 281 C49.57421875 282.47265625 49.57421875 282.47265625 47.6875 284.0625 C46.62015625 284.96355469 46.62015625 284.96355469 45.53125 285.8828125 C44.6959375 286.58148438 43.860625 287.28015625 43 288 C41.96779234 288.89212233 40.93659465 289.78541416 39.90625 290.6796875 C38.83378088 291.59948042 37.76086582 292.51875366 36.6875 293.4375 C36.1721167 293.88681885 35.6567334 294.3361377 35.12573242 294.79907227 C31.34157692 298 31.34157692 298 28 298 C28 298.66 28 299.32 28 300 C21.25 304 21.25 304 19 304 C19 304.66 19 305.32 19 306 C16.31433412 307.44101533 13.62657941 308.87787947 10.9375 310.3125 C10.18533203 310.71662109 9.43316406 311.12074219 8.65820312 311.53710938 C-15.10404444 324.1897347 -41.49429951 330.38799874 -68.30273438 330.31567383 C-70.73353335 330.31252136 -73.1631008 330.33604977 -75.59375 330.36132812 C-89.99469759 330.41987337 -103.91845369 328.44812988 -117.8125 324.625 C-118.59020752 324.41657471 -119.36791504 324.20814941 -120.16918945 323.9934082 C-126.96826774 322.11835591 -133.49917076 319.7427197 -140 317 C-140 316.34 -140 315.68 -140 315 C-140.78632813 314.93941406 -141.57265625 314.87882812 -142.3828125 314.81640625 C-147.36327235 313.69230678 -151.41916349 311.37680206 -155.875 308.9375 C-156.75414062 308.46505859 -157.63328125 307.99261719 -158.5390625 307.50585938 C-160.69695524 306.34481926 -162.85027708 305.17607732 -165 304 C-165 303.34 -165 302.68 -165 302 C-165.99 302 -166.98 302 -168 302 C-168 301.34 -168 300.68 -168 300 C-169.98 299.34 -171.96 298.68 -174 298 C-174 297.34 -174 296.68 -174 296 C-174.7734375 295.6596875 -174.7734375 295.6596875 -175.5625 295.3125 C-178.89547005 293.51782382 -182.14703671 291.50034985 -185 289 C-185 288.34 -185 287.68 -185 287 C-185.66 287 -186.32 287 -187 287 C-187 286.34 -187 285.68 -187 285 C-187.56203125 284.7628125 -188.1240625 284.525625 -188.703125 284.28125 C-191.51894042 282.71052303 -193.47955416 280.78528536 -195.75 278.5 C-196.54921875 277.7059375 -197.3484375 276.911875 -198.171875 276.09375 C-200 274 -200 274 -200 272 C-200.66 272 -201.32 272 -202 272 C-203.54331236 270.32783424 -205.01114909 268.58548462 -206.4375 266.8125 C-207.21996094 265.84957031 -208.00242188 264.88664062 -208.80859375 263.89453125 C-211.66775661 260.11798994 -214.12775627 256.71011614 -215 252 C-215.66 252 -216.32 252 -217 252 C-223.28110113 243.18948247 -227.5753064 232.82693578 -232 223 C-232.60328125 221.69289063 -232.60328125 221.69289063 -233.21875 220.359375 C-250.33551015 180.88039595 -247.07002234 133.76490918 -232.625 94.1875 C-229.81030007 87.18730473 -226.37140649 80.48678224 -222.91699219 73.78564453 C-221.58977616 71.20117754 -220.29446338 68.60098697 -219 66 C-218.34 66 -217.68 66 -217 66 C-216.77699219 65.32582031 -216.55398437 64.65164062 -216.32421875 63.95703125 C-214.61534112 60.14104197 -212.31003992 57.02411944 -209.8125 53.6875 C-209.32144775 53.02613037 -208.83039551 52.36476074 -208.32446289 51.68334961 C-200.40706275 41.10906892 -200.40706275 41.10906892 -197 38 C-196.34 38 -195.68 38 -195 38 C-194.34 36.68 -193.68 35.36 -193 34 C-192.34 34 -191.68 34 -191 34 C-190.74089844 33.40703125 -190.48179687 32.8140625 -190.21484375 32.203125 C-183.35467249 19.76217134 -163.43207088 9.86820636 -151.08203125 3.9921875 C-148.40185737 2.71495642 -145.76895639 1.35053427 -143.125 0 C-99.65867027 -21.54418082 -43.52916047 -21.01379219 0 0 Z M-191 56 C-199.69309193 66.17943126 -208.06980855 77.56814592 -213.15625 90.0078125 C-213.78714761 91.49743185 -214.46110522 92.96894408 -215.15625 94.4296875 C-220.57847156 105.83619016 -223.61679885 117.63273724 -226 130 C-226.31130859 131.43279297 -226.31130859 131.43279297 -226.62890625 132.89453125 C-233.54566671 169.02614009 -223.8927525 208.92639391 -205 240 C-203.45597162 242.16813331 -201.87087376 244.27282831 -200.19921875 246.34375 C-199 248 -199 248 -198 251 C-197.34 251 -196.68 251 -196 251 C-195.73606445 251.74693115 -195.47212891 252.4938623 -195.20019531 253.26342773 C-194.0017318 255.99605132 -192.82115815 257.62285379 -190.796875 259.78515625 C-190.15322998 260.47496582 -189.50958496 261.16477539 -188.84643555 261.87548828 C-188.15461182 262.59720215 -187.46278809 263.31891602 -186.75 264.0625 C-186.03561768 264.81257324 -185.32123535 265.56264648 -184.58520508 266.33544922 C-175.03677676 276.22727017 -165.01313682 285.20186831 -153 292 C-152.38286133 292.3515918 -151.76572266 292.70318359 -151.12988281 293.06542969 C-141.06312141 298.75070226 -130.94489685 303.26878517 -120 307 C-118.92806396 307.37233765 -118.92806396 307.37233765 -117.83447266 307.75219727 C-102.00232777 313.17241077 -86.574654 314.3980681 -69.9375 314.4375 C-69.09233826 314.44349213 -68.24717651 314.44948425 -67.37640381 314.45565796 C-57.42834685 314.50256797 -48.5956322 313.88598487 -39 311 C-36.83584995 310.59063091 -34.66955693 310.19217246 -32.5 309.8125 C-17.44274136 306.61803187 -3.25060797 299.67879755 10 292 C10.96035156 291.44828125 11.92070312 290.8965625 12.91015625 290.328125 C30.63369153 279.61749936 46.10774902 263.84056774 58 247 C58.4736499 246.33081543 58.9472998 245.66163086 59.43530273 244.97216797 C63.22894933 239.47032072 66.24967386 233.80501062 69.0625 227.75 C69.4958667 226.82179443 69.9292334 225.89358887 70.37573242 224.93725586 C71.59747645 222.29746951 72.80286686 219.65102264 74 217 C74.52078125 215.85144531 75.0415625 214.70289063 75.578125 213.51953125 C79.77332468 203.46963834 81.89368659 192.65356641 84 182 C84.18175781 181.0821875 84.36351562 180.164375 84.55078125 179.21875 C85.09413085 175.32553197 85.18117255 171.48150162 85.203125 167.55859375 C85.20882507 166.75446548 85.21452515 165.95033722 85.22039795 165.12184143 C85.22981059 163.42328185 85.236367 161.72470431 85.24023438 160.02612305 C85.24987909 157.46955054 85.28091231 154.9138041 85.3125 152.35742188 C85.36690826 143.82684983 85.02065457 136.01682577 82.74511719 127.72192383 C81.76118487 124.12760488 81.19454997 120.50646855 80.625 116.828125 C78.93584503 109.18469877 75.85774521 102.09893373 72.625 95 C72.06425781 93.74316406 72.06425781 93.74316406 71.4921875 92.4609375 C54.20255108 54.21057748 21.80364121 25.45474535 -17 10 C-25.44655079 6.98182375 -34.04532541 4.94421885 -42.87182617 3.37988281 C-44.45292111 3.09765455 -46.03079524 2.79725859 -47.60668945 2.48730469 C-55.75744719 0.97272511 -63.78195791 0.51697318 -72.0625 0.5 C-72.75364899 0.49798584 -73.44479797 0.49597168 -74.15689087 0.49389648 C-119.66692982 0.58251475 -160.87988821 22.86878949 -191 56 Z " fill="#0D0C0C" transform="translate(321,92)"/>
<path d="M0 0 C3.08411303 2.40871618 4.38144445 5.64962487 5.953125 9.13671875 C6.29939941 9.8939624 6.64567383 10.65120605 7.00244141 11.43139648 C17.63663365 35.38680906 22.25802313 67.20354994 13.078125 92.38671875 C12.72363281 93.26585937 12.36914062 94.145 12.00390625 95.05078125 C11.06766608 97.44133915 10.4050182 99.77839805 9.765625 102.26171875 C8.37925079 107.01500175 6.33472314 111.33952512 4.140625 115.76171875 C3.81288086 116.4271167 3.48513672 117.09251465 3.14746094 117.77807617 C0.8101407 122.37332086 -1.93307345 126.42034605 -4.984375 130.57421875 C-5.69112129 131.88674757 -6.38400772 133.20974766 -6.984375 134.57421875 C-7.644375 134.57421875 -8.304375 134.57421875 -8.984375 134.57421875 C-9.17 135.23421875 -9.355625 135.89421875 -9.546875 136.57421875 C-15.26061366 148.49854292 -28.38125844 156.39386262 -38.984375 163.57421875 C-39.59539062 164.00992188 -40.20640625 164.445625 -40.8359375 164.89453125 C-43.48542568 166.76091948 -44.65590684 167.57421875 -47.984375 167.57421875 C-47.984375 168.23421875 -47.984375 168.89421875 -47.984375 169.57421875 C-54.92710245 172.40552626 -61.90305759 175.1080374 -68.984375 177.57421875 C-69.77328125 177.85394531 -70.5621875 178.13367188 -71.375 178.421875 C-91.31414268 184.9912283 -113.82188669 184.28439673 -133.93945312 179.09570312 C-135.84653929 178.60936883 -137.76681992 178.17561292 -139.6875 177.74609375 C-144.64552058 176.62035961 -147.94999363 175.68987961 -151.984375 172.57421875 C-153.50562642 171.92034752 -155.0497863 171.31798898 -156.609375 170.76171875 C-162.14522362 168.63569121 -166.98247605 165.72667607 -171.984375 162.57421875 C-172.86867187 162.05472656 -173.75296875 161.53523437 -174.6640625 161 C-177.20674017 159.43758022 -178.90272472 157.71534475 -180.984375 155.57421875 C-182.18914444 154.54918181 -183.39797267 153.52890828 -184.609375 152.51171875 C-193.46209846 144.79227529 -201.64381305 135.49857659 -207.984375 125.57421875 C-207.984375 124.58421875 -207.984375 123.59421875 -207.984375 122.57421875 C-201.484375 118.57421875 -201.484375 118.57421875 -196.984375 118.57421875 C-195.5715332 119.90014648 -195.5715332 119.90014648 -194.28515625 121.7578125 C-193.80328857 122.43368408 -193.3214209 123.10955566 -192.82495117 123.8059082 C-192.32068604 124.53382568 -191.8164209 125.26174316 -191.296875 126.01171875 C-174.19057077 149.63077214 -150.20111786 163.59676963 -121.671875 168.88671875 C-90.3213504 172.95212344 -60.6610501 164.80981684 -35.55859375 145.7109375 C-20.62066836 133.3117794 -10.31279183 118.43894596 -2.984375 100.57421875 C-2.35402344 99.05248047 -2.35402344 99.05248047 -1.7109375 97.5 C7.20204297 73.47516168 6.5003131 44.79702901 -2.83203125 21.03515625 C-4.62082835 17.21501329 -6.71906017 13.58668551 -8.91015625 9.984375 C-9.984375 7.57421875 -9.984375 7.57421875 -9.859375 5.40625 C-8.78690987 3.16077613 -7.82273189 2.4243321 -5.671875 1.19921875 C-5.07761719 0.84085938 -4.48335937 0.4825 -3.87109375 0.11328125 C-1.984375 -0.42578125 -1.984375 -0.42578125 0 0 Z " fill="#0B0607" transform="translate(353.984375,188.42578125)"/>
<path d="M0 0 C18.30065038 5.97572257 30.7904833 25.78015318 39.10302734 42.03466797 C40.21345666 44.24316103 41.29922824 46.46193326 42.375 48.6875 C42.71289551 49.37618164 43.05079102 50.06486328 43.39892578 50.77441406 C46.75610601 57.91033436 48.35076303 64.90161805 48.3125 72.8125 C48.32023437 74.43091797 48.32023437 74.43091797 48.328125 76.08203125 C48.06664817 78.95443111 47.64312589 80.61236442 46.0625 83 C43.05299825 84.50475088 41.45391132 84.42392641 38.0625 84 C22.38493096 76.89528226 12.66471456 61.24142419 4.0625 47 C3.70099854 46.40179443 3.33949707 45.80358887 2.96704102 45.18725586 C-3.26962817 34.58772821 -10.7300119 17.61134406 -7.9375 5 C-5.52467894 1.30980309 -4.46467738 0 0 0 Z " fill="#060404" transform="translate(155.9375,178)"/>
<path d="M0 0 C16.20735794 5.98967576 27.79886068 24.21906903 35.15625 38.796875 C35.7440625 39.91191406 36.331875 41.02695313 36.9375 42.17578125 C43.12412853 54.01235115 48.0485048 65.14195521 46.15625 78.796875 C44.62890625 81.70703125 44.62890625 81.70703125 43.15625 83.796875 C37.01703017 83.52402079 33.104024 82.73260432 28.15625 78.796875 C27.2075 78.095625 26.25875 77.394375 25.28125 76.671875 C24.58 76.053125 23.87875 75.434375 23.15625 74.796875 C23.15625 74.136875 23.15625 73.476875 23.15625 72.796875 C22.16625 72.466875 21.17625 72.136875 20.15625 71.796875 C5.3384249 56.73663149 -9.35667157 32.08279821 -10.03125 10.734375 C-9.859271 7.122816 -9.58954598 4.92093097 -7.84375 1.796875 C-4.76513104 -0.25553764 -3.57694873 -0.63657562 0 0 Z " fill="#030202" transform="translate(239.84375,129.203125)"/>
<path d="M0 0 C4.47810443 1.49270148 5.25002759 4.55208388 7.375 8.60546875 C11.90205687 18.06222938 16.11423562 27.33656494 16.25 37.9375 C16.27578125 39.14277344 16.3015625 40.34804687 16.328125 41.58984375 C15.97882259 45.2200938 15.1101651 47.0735342 13 50 C6.86078017 49.72714579 2.947774 48.93572932 -2 45 C-3.423125 43.948125 -3.423125 43.948125 -4.875 42.875 C-5.57625 42.25625 -6.2775 41.6375 -7 41 C-7 40.34 -7 39.68 -7 39 C-7.99 38.67 -8.98 38.34 -10 38 C-9.8131665 37.472854 -9.62633301 36.94570801 -9.43383789 36.40258789 C-7.39201611 30.4845907 -5.83736099 24.53594806 -4.4375 18.4375 C-4.0199373 16.64443664 -3.60197443 14.85146642 -3.18359375 13.05859375 C-2.98620605 12.20894043 -2.78881836 11.35928711 -2.58544922 10.48388672 C-1.7595575 6.97987405 -0.8836625 3.48985604 0 0 Z " fill="#060404" transform="translate(270,163)"/>
<path d="M0 0 C3.77837672 2.1376762 7.00435247 4.5695377 10.3125 7.375 C14.69808063 11.01776548 19.08334552 14.12422096 24 17 C23.01 17.495 23.01 17.495 22 18 C21.56785888 19.92280632 21.56785888 19.92280632 21.4375 22.1875 C21.11159048 25.83070287 20.64673491 29.39676262 20 33 C14.25 31.125 14.25 31.125 12 30 C12 29.34 12 28.68 12 28 C11.01 28 10.02 28 9 28 C9 27.34 9 26.68 9 26 C7.02 25.34 5.04 24.68 3 24 C3 23.34 3 22.68 3 22 C2.484375 21.773125 1.96875 21.54625 1.4375 21.3125 C-1.89547005 19.51782382 -5.14703671 17.50034985 -8 15 C-8 14.34 -8 13.68 -8 13 C-8.66 13 -9.32 13 -10 13 C-10 12.34 -10 11.68 -10 11 C-10.58265625 10.74476563 -11.1653125 10.48953125 -11.765625 10.2265625 C-14.21388223 8.88258913 -15.81743248 7.38189704 -17.75 5.375 C-18.36359375 4.74335938 -18.9771875 4.11171875 -19.609375 3.4609375 C-20.06828125 2.97882813 -20.5271875 2.49671875 -21 2 C-17.83024959 0.41512479 -15.49036601 1.91032596 -12.1875 2.9375 C-6.20258341 4.92009917 -6.20258341 4.92009917 0 5 C0.66 4.01 1.32 3.02 2 2 C1.34 2 0.68 2 0 2 C0 1.34 0 0.68 0 0 Z " fill="#111010" transform="translate(144,366)"/>
<path d="M0 0 C1.958964 0.30852185 3.91715713 0.6219418 5.875 0.9375 C6.96554687 1.11152344 8.05609375 1.28554688 9.1796875 1.46484375 C12 2 12 2 14 3 C12.39516194 7.66861981 10.02509806 12.09258167 7 16 C6.34 16 5.68 16 5 16 C4.88591797 16.59474121 4.77183594 17.18948242 4.65429688 17.80224609 C3.95099294 20.16461252 3.14560323 21.32793836 1.53125 23.1640625 C1.04269531 23.72867187 0.55414063 24.29328125 0.05078125 24.875 C-0.71685547 25.74125 -0.71685547 25.74125 -1.5 26.625 C-5.12159946 30.55225501 -5.12159946 30.55225501 -8 35 C-8.66 35 -9.32 35 -10 35 C-10 35.66 -10 36.32 -10 37 C-10.66 37 -11.32 37 -12 37 C-12.33 37.99 -12.66 38.98 -13 40 C-15.0625 41.1875 -15.0625 41.1875 -17 42 C-15.60213923 33.15301274 -13.39537771 24.61638292 -11 16 C-11.99 15.67 -12.98 15.34 -14 15 C-12.54362329 13.04018443 -11.08499848 11.08211453 -9.625 9.125 C-9.2125 8.56941406 -8.8 8.01382812 -8.375 7.44140625 C-6.6745427 5.1649876 -5.0120881 3.0120881 -3 1 C-2.67 1.66 -2.34 2.32 -2 3 C-1.34 2.01 -0.68 1.02 0 0 Z " fill="#131212" transform="translate(385,333)"/>
<path d="M0 0 C3.08436696 2.4089145 4.38056629 5.6498247 5.953125 9.13671875 C6.29794922 9.88671143 6.64277344 10.6367041 6.99804688 11.40942383 C9.37931974 16.75226572 11.34644303 22.15710738 13.015625 27.76171875 C13.2230835 28.45531494 13.43054199 29.14891113 13.64428711 29.86352539 C14.75841502 33.85812905 15.22168617 37.43367718 15.015625 41.57421875 C10.81131246 41.00712543 6.92734574 40.24914158 3.015625 38.57421875 C1.0007011 35.81038508 0.64220209 32.89257104 0.015625 29.57421875 C-2.19710803 22.53087135 -5.07279963 16.29324944 -8.91015625 9.984375 C-9.984375 7.57421875 -9.984375 7.57421875 -9.859375 5.40625 C-8.78690987 3.16077613 -7.82273189 2.4243321 -5.671875 1.19921875 C-4.78048828 0.66167969 -4.78048828 0.66167969 -3.87109375 0.11328125 C-1.984375 -0.42578125 -1.984375 -0.42578125 0 0 Z " fill="#0B0607" transform="translate(353.984375,188.42578125)"/>
<path d="M0 0 C4.80659252 1.5694996 8.20364703 2.71172054 11.0625 7 C10.4528856 9.96098424 9.73788494 12.73795104 8.875 15.625 C6.3149536 24.67818352 4.52510999 33.7130211 3.0625 43 C-4.34976226 36.99959722 -7.10572821 21.65866789 -8.43359375 12.625 C-8.64204935 7.97580851 -8.39916394 5.70607427 -5.8125 1.75 C-2.9375 0 -2.9375 0 0 0 Z " fill="#0C0808" transform="translate(155.9375,178)"/>
<path d="M0 0 C11.37718901 4.20461333 19.98865037 14.83382945 26.15625 24.796875 C19.96178357 23.8546746 14.08563104 22.85926841 8.15625 20.796875 C6.49326848 20.44561818 4.82607774 20.11399362 3.15625 19.796875 C-0.6381128 19.0746851 -4.2105504 18.13542222 -7.84375 16.796875 C-8.17375 18.116875 -8.50375 19.436875 -8.84375 20.796875 C-10.11584828 14.43638358 -11.13644679 7.68906926 -7.84375 1.796875 C-4.76513104 -0.25553764 -3.57694873 -0.63657562 0 0 Z " fill="#0E0B0B" transform="translate(239.84375,129.203125)"/>
<path d="M0 0 C6.3908806 1.19338311 12.73027292 2.59350301 19.0625 4.0625 C20.20609985 4.32401855 20.20609985 4.32401855 21.37280273 4.59082031 C26.88216443 5.88216443 26.88216443 5.88216443 28 7 C28.46449622 14.19969145 27.15229169 20.14597588 25 27 C20.75177286 25.40565347 18.22871619 22.18866974 15.3125 18.875 C11.00802416 14.06399808 6.61155874 9.71558488 1.546875 5.68359375 C0 4 0 4 0 0 Z " fill="#070405" transform="translate(349,125)"/>
<path d="M0 0 C0.65226562 0.13277344 1.30453125 0.26554688 1.9765625 0.40234375 C6.6408287 1.34482822 11.29868454 2.25768703 16 3 C16.64581456 10.62419969 15.07443671 17.15454317 12.875 24.38671875 C11.98472767 28.06306656 11.84527291 31.23336252 12 35 C11.34 34.67 10.68 34.34 10 34 C9.67 34.66 9.34 35.32 9 36 C8.34 36 7.68 36 7 36 C6.81824219 34.87722656 6.63648438 33.75445312 6.44921875 32.59765625 C4.54592795 19.87229693 4.54592795 19.87229693 -0.11328125 7.97265625 C-1.39649292 5.11793426 -0.67703826 2.97896835 0 0 Z " fill="#080506" transform="translate(396,187)"/>
<path d="M0 0 C-0.64158952 2.64692977 -1.28804783 5.29249929 -1.9375 7.9375 C-2.11990234 8.69224609 -2.30230469 9.44699219 -2.49023438 10.22460938 C-3.88671875 15.88671875 -3.88671875 15.88671875 -5 17 C-12.31257592 17.63039448 -18.50553504 15.95161569 -25.44921875 13.875 C-28.80024775 13.04922388 -31.56927618 12.83136227 -35 13 C-35 12.01 -35 11.02 -35 10 C-34.01 10 -33.02 10 -32 10 C-31.67 9.01 -31.34 8.02 -31 7 C-28.2265625 6.19140625 -28.2265625 6.19140625 -24.625 5.5625 C-18.9456052 4.47520242 -13.83035854 2.99329021 -8.5 0.76953125 C-5.57133347 -0.13194892 -3.046889 -0.12842991 0 0 Z " fill="#080505" transform="translate(313,395)"/>
<path d="M0 0 C1.32 0 2.64 0 4 0 C2.45015242 9.44183462 0.24470469 18.7051791 -2 28 C-8.96327638 28.33693273 -14.43345544 27.3030887 -21 25 C-18.0088034 21.29661373 -15.03462267 17.92311754 -11.3125 14.9375 C-8.12737961 12.30994992 -6.73068983 9.77605054 -5 6 C-3.47429241 3.71924941 -1.94116674 1.98851227 0 0 Z " fill="#050404" transform="translate(370,349)"/>
<path d="M0 0 C1.5778125 0.495 1.5778125 0.495 3.1875 1 C7.7332705 2.19233325 10.558307 2.48056433 15 1 C14.67 1.99 14.34 2.98 14 4 C13.34 4 12.68 4 12 4 C11.814375 4.66 11.62875 5.32 11.4375 6 C7.99610357 13.18204473 1.36502558 19.31768233 -5 24 C-5.66 24 -6.32 24 -7 24 C-6.71561048 22.10306139 -6.42216208 20.20747973 -6.125 18.3125 C-5.96257812 17.25675781 -5.80015625 16.20101563 -5.6328125 15.11328125 C-5.04106931 12.20205086 -4.1968194 9.71044393 -3 7 C-3.66 6.67 -4.32 6.34 -5 6 C-3.35 4.02 -1.7 2.04 0 0 Z " fill="#0D0709" transform="translate(333,319)"/>
<path d="M0 0 C5.54863148 8.32294721 9 20.08213621 9 30 C5.04 29.01 1.08 28.02 -3 27 C-4.60477105 23.38926514 -5.35451476 21.27433684 -4.27734375 17.40234375 C-3.54231711 15.52921135 -2.79192884 13.66204394 -2.02734375 11.80078125 C-0.57616397 7.84452306 -0.27477384 4.19030111 0 0 Z " fill="#110C0D" transform="translate(360,200)"/>
<path d="M0 0 C0.76957031 0.2371875 1.53914063 0.474375 2.33203125 0.71875 C3.15058594 0.9765625 3.96914063 1.234375 4.8125 1.5 C8.8900823 2.73837685 12.76831004 3.5400337 17 4 C13.15711847 7.53502638 8.50363708 8.68151828 3.625 10.1875 C2.78710938 10.46013672 1.94921875 10.73277344 1.0859375 11.01367188 C-3.40453915 12.4222412 -7.2354605 13.34919263 -12 13 C-11.63071549 11.03648722 -11.22861359 9.0791246 -10.8125 7.125 C-10.59207031 6.03445313 -10.37164062 4.94390625 -10.14453125 3.8203125 C-9 1 -9 1 -6.63671875 -0.4453125 C-3.838345 -1.03400742 -2.64721893 -0.95695144 0 0 Z " fill="#0E0A0B" transform="translate(281,356)"/>
<path d="M0 0 C1.64548828 0.41572266 1.64548828 0.41572266 3.32421875 0.83984375 C4.77862993 1.20579237 6.2330579 1.57167427 7.6875 1.9375 C8.40873047 2.11990234 9.12996094 2.30230469 9.87304688 2.49023438 C10.57880859 2.66748047 11.28457031 2.84472656 12.01171875 3.02734375 C13.0469165 3.2900708 13.0469165 3.2900708 14.10302734 3.55810547 C16.13210926 4.06169441 16.13210926 4.06169441 18.76953125 4.37890625 C21.8770176 5.24421331 23.16943065 6.35189482 25 9 C24.734375 12.015625 24.734375 12.015625 23.75 15.25 C23.43546875 16.32765625 23.1209375 17.4053125 22.796875 18.515625 C22.53390625 19.33546875 22.2709375 20.1553125 22 21 C12.63518724 16.52117651 5.60930166 8.60092921 0 0 Z " fill="#0F0B0C" transform="translate(155,325)"/>
<path d="M0 0 C0.33 0 0.66 0 1 0 C1.0814222 2.22855574 1.13938079 4.45797655 1.1875 6.6875 C1.23970703 8.54955078 1.23970703 8.54955078 1.29296875 10.44921875 C0.9846829 14.18564321 0.18088273 16.00629483 -2 19 C-8.13921983 18.72714579 -12.052226 17.93572932 -17 14 C-17.94875 13.29875 -18.8975 12.5975 -19.875 11.875 C-20.57625 11.25625 -21.2775 10.6375 -22 10 C-22 9.34 -22 8.68 -22 8 C-19.64506308 8.45462103 -17.29110915 8.913595 -14.9375 9.375 C-14.28072266 9.50132812 -13.62394531 9.62765625 -12.94726562 9.7578125 C-8.55215035 10.62384507 -4.29213829 11.71626553 0 13 C0 8.71 0 4.42 0 0 Z " fill="#201619" transform="translate(285,194)"/>
<path d="M0 0 C0.66 0 1.32 0 2 0 C3.11083501 3.33250502 3.16759585 5.93038958 3.1875 9.4375 C3.20167969 10.57058594 3.21585938 11.70367187 3.23046875 12.87109375 C3.00904861 15.87715357 2.6672656 17.52542684 1 20 C-1.76250036 21.38125018 -3.94731099 21.19079306 -7 21 C-7.66 20.34 -8.32 19.68 -9 19 C-7.68 18.67 -6.36 18.34 -5 18 C-3.35 12.06 -1.7 6.12 0 0 Z " fill="#150F10" transform="translate(201,241)"/>
<path d="M0 0 C1.47765517 3.92328156 0.53003734 6.96335418 -0.43359375 10.953125 C-0.59038101 11.61334656 -0.74716827 12.27356812 -0.90870667 12.95379639 C-1.40970934 15.05470211 -1.92340106 17.15226481 -2.4375 19.25 C-2.78013926 20.67688131 -3.12194577 22.10396287 -3.46289062 23.53125 C-4.29895585 27.02320565 -5.14642585 30.51227765 -6 34 C-6.99 33.67 -7.98 33.34 -9 33 C-8.7208374 32.21471924 -8.7208374 32.21471924 -8.43603516 31.41357422 C-6.35523534 25.39228442 -4.79517521 19.33169165 -3.375 13.125 C-2.94647682 11.27316768 -2.51683896 9.42159286 -2.0859375 7.5703125 C-1.9007959 6.76352051 -1.7156543 5.95672852 -1.52490234 5.12548828 C-1 3 -1 3 0 0 Z " fill="#2C2B2B" transform="translate(269,168)"/>
<path d="M0 0 C-0.33 0.33 -0.66 0.66 -1 1 C5.6 2.65 12.2 4.3 19 6 C19 6.66 19 7.32 19 8 C16.16636189 7.37635743 13.33309041 6.75112186 10.5 6.125 C9.31277344 5.86396484 9.31277344 5.86396484 8.1015625 5.59765625 C4.24503343 4.74416211 0.41256012 3.85353152 -3.40625 2.84375 C-6.84338558 2.03677034 -8.67928454 1.96227642 -12 3 C-8.08270009 -0.33695918 -5.0005885 -1.66686283 0 0 Z " fill="#4D4D4D" transform="translate(202,85)"/>
<path d="M0 0 C1.67170557 4.09462061 0.25608365 7.75632916 -0.875 11.8125 C-2.25325113 16.87400845 -3.3596188 21.78838708 -4 27 C-6.76223278 24.23776722 -6.57856291 21.79293383 -7 18 C-6.34 18 -5.68 18 -5 18 C-4.58427734 16.30230469 -4.58427734 16.30230469 -4.16015625 14.5703125 C-3.79439512 13.08851098 -3.42850289 11.60674182 -3.0625 10.125 C-2.88009766 9.37863281 -2.69769531 8.63226563 -2.50976562 7.86328125 C-1.11328125 2.2265625 -1.11328125 2.2265625 0 0 Z " fill="#464747" transform="translate(91,280)"/>
<path d="M0 0 C0 0.66 0 1.32 0 2 C-0.66386719 2.25394531 -1.32773438 2.50789063 -2.01171875 2.76953125 C-7.59305829 4.92388479 -7.59305829 4.92388479 -12.8125 7.8125 C-15 9 -15 9 -17.8125 8.6875 C-18.534375 8.460625 -19.25625 8.23375 -20 8 C-16.59634379 5.08380209 -13.08587691 3.7761973 -8.875 2.3125 C-7.63492188 1.87550781 -6.39484375 1.43851562 -5.1171875 0.98828125 C-2 0 -2 0 0 0 Z " fill="#D9B1BF" transform="translate(202,101)"/>
<path d="M0 0 C3.26460973 1.80412643 4.88929795 2.83394693 7 6 C6.34 6 5.68 6 5 6 C5.33 6.99 5.66 7.98 6 9 C0.94468132 8.22225866 -4.01716284 7.14051606 -9 6 C-6.60747632 5.33823813 -4.88461867 5.00549435 -2.375 5.125 C-1.59125 5.08375 -0.8075 5.0425 0 5 C0.66 4.01 1.32 3.02 2 2 C1.34 2 0.68 2 0 2 C0 1.34 0 0.68 0 0 Z " fill="#1E181A" transform="translate(144,366)"/>
<path d="M0 0 C4.0775823 1.23837685 7.95581004 2.0400337 12.1875 2.5 C8.4375 5.5 8.4375 5.5 6.1875 5.5 C6.1875 4.84 6.1875 4.18 6.1875 3.5 C3.95842605 3.02040222 1.72923703 2.5413392 -0.5 2.0625 C-1.74136719 1.79566406 -2.98273438 1.52882813 -4.26171875 1.25390625 C-7.10862015 0.64944864 -9.95705626 0.06235316 -12.8125 -0.5 C-8.089989 -3.36723882 -4.98862076 -1.57121914 0 0 Z " fill="#352C2E" transform="translate(285.8125,357.5)"/>
<path d="M0 0 C1.36862721 3.75916275 0.60871969 6.44147056 -0.375 10.25 C-1.59396617 15.18709129 -2.50424531 19.94330214 -3 25 C-4.60546875 23.98828125 -4.60546875 23.98828125 -6 22 C-5.60470654 19.23294579 -5.08664518 16.84756895 -4.3125 14.1875 C-4.12494141 13.48818359 -3.93738281 12.78886719 -3.74414062 12.06835938 C-2.6357669 7.9967047 -1.3721953 3.99127125 0 0 Z " fill="#322C2E" transform="translate(162,196)"/>
<path d="M0 0 C0.33 0 0.66 0 1 0 C0.67 3.63 0.34 7.26 0 11 C0.99 11.66 1.98 12.32 3 13 C2.34 13 1.68 13 1 13 C0.67 13.99 0.34 14.98 0 16 C-2.0625 17.1875 -2.0625 17.1875 -4 18 C-2.9611908 11.8887076 -1.84269722 5.92295536 0 0 Z " fill="#2B2B2B" transform="translate(372,357)"/>
<path d="M0 0 C2.02054804 1.64169528 4.02043058 3.30911778 6 5 C6 5.33 6 5.66 6 6 C-0.48472993 5.26309887 -6.69239743 3.64681249 -13 2 C-9.87819599 1.03338637 -7.47916205 1.01011091 -4.25 1.4375 C-3.05117188 1.59025391 -3.05117188 1.59025391 -1.828125 1.74609375 C-1.22484375 1.82988281 -0.6215625 1.91367188 0 2 C0 1.34 0 0.68 0 0 Z " fill="#4A494A" transform="translate(369,125)"/>
<path d="M0 0 C1.64548828 0.41572266 1.64548828 0.41572266 3.32421875 0.83984375 C4.77862993 1.20579237 6.2330579 1.57167427 7.6875 1.9375 C8.40873047 2.11990234 9.12996094 2.30230469 9.87304688 2.49023438 C10.57880859 2.66748047 11.28457031 2.84472656 12.01171875 3.02734375 C12.6979834 3.19991699 13.38424805 3.37249023 14.09130859 3.55029297 C15.70002324 3.92932244 17.32775537 4.22626214 18.95703125 4.50390625 C19.63121094 4.66761719 20.30539063 4.83132813 21 5 C21.33 5.66 21.66 6.32 22 7 C17.34036959 6.45818251 12.7772074 5.59687817 8.1875 4.625 C7.06730469 4.39039063 5.94710937 4.15578125 4.79296875 3.9140625 C2 3 2 3 0 0 Z " fill="#302A2C" transform="translate(155,325)"/>
<path d="M0 0 C0.969375 0.144375 1.93875 0.28875 2.9375 0.4375 C7.28052169 1.06047442 11.63765234 1.53507859 16 2 C16.33 1.34 16.66 0.68 17 0 C17.33 1.65 17.66 3.3 18 5 C15.37303769 4.55120234 12.74883107 4.09145886 10.125 3.625 C9.37863281 3.49867188 8.63226563 3.37234375 7.86328125 3.2421875 C2.2265625 2.2265625 2.2265625 2.2265625 0 0 Z " fill="#373133" transform="translate(184,233)"/>
<path d="M0 0 C2.31452922 0.4479734 4.62660039 0.90866461 6.9375 1.375 C8.22527344 1.63023437 9.51304688 1.88546875 10.83984375 2.1484375 C11.88269531 2.42945313 12.92554687 2.71046875 14 3 C14.33 3.66 14.66 4.32 15 5 C6.42857143 4 6.42857143 4 3 3 C2.67 4.32 2.34 5.64 2 7 C1.34 4.69 0.68 2.38 0 0 Z " fill="#464545" transform="translate(87,308)"/>
<path d="M0 0 C0.66 0.33 1.32 0.66 2 1 C-1.6744306 5.00846975 -5.12079359 7.5603968 -10 10 C-10.99 10 -11.98 10 -13 10 C-11.21024844 8.51851668 -9.41813943 7.03988094 -7.625 5.5625 C-6.62726563 4.73878906 -5.62953125 3.91507812 -4.6015625 3.06640625 C-2 1 -2 1 0 0 Z " fill="#D5AEBB" transform="translate(163,119)"/>
<path d="M0 0 C0.96697501 3.86790003 0.979595 5.08162002 0.0625 8.75 C-0.13214844 9.54921875 -0.32679688 10.3484375 -0.52734375 11.171875 C-0.76130859 12.07679688 -0.76130859 12.07679688 -1 13 C-0.34 13.33 0.32 13.66 1 14 C-1.875 14.125 -1.875 14.125 -5 14 C-5.66 13.34 -6.32 12.68 -7 12 C-5.68 11.67 -4.36 11.34 -3 11 C-2.01 7.37 -1.02 3.74 0 0 Z " fill="#382D31" transform="translate(199,248)"/>
<path d="M0 0 C0.66 0.33 1.32 0.66 2 1 C2 1.99 2 2.98 2 4 C5.3 4.66 8.6 5.32 12 6 C12 6.66 12 7.32 12 8 C7.38 7.34 2.76 6.68 -2 6 C-1.34 4.02 -0.68 2.04 0 0 Z " fill="#525252" transform="translate(102,158)"/>
<path d="M0 0 C3.4375 0.75 3.4375 0.75 5.4375 2.75 C4.1175 3.08 2.7975 3.41 1.4375 3.75 C1.4375 3.09 1.4375 2.43 1.4375 1.75 C-3.45812693 3.62702327 -3.45812693 3.62702327 -7.5625 6.75 C-7.25 4.375 -7.25 4.375 -6.5625 1.75 C-3.5625 -0.25 -3.5625 -0.25 0 0 Z " fill="#331F24" transform="translate(238.5625,129.25)"/>
<path d="M0 0 C5.28 0.99 10.56 1.98 16 3 C14.68 4.32 13.36 5.64 12 7 C12 6.01 12 5.02 12 4 C11.38511719 3.96261719 10.77023437 3.92523438 10.13671875 3.88671875 C9.32847656 3.82097656 8.52023437 3.75523437 7.6875 3.6875 C6.88699219 3.62949219 6.08648437 3.57148438 5.26171875 3.51171875 C3 3 3 3 0 0 Z " fill="#484848" transform="translate(350,374)"/>
<path d="M0 0 C0.33 0 0.66 0 1 0 C0.36934845 5.7809725 -0.65155132 11.3443706 -2 17 C-3.67098865 14.4543061 -4.0522212 13.33440733 -3.57421875 10.2734375 C-3.28160156 9.31695312 -2.98898437 8.36046875 -2.6875 7.375 C-2.40261719 6.41335937 -2.11773437 5.45171875 -1.82421875 4.4609375 C-1 2 -1 2 0 0 Z " fill="#342E30" transform="translate(359,209)"/>
<path d="M0 0 C5.94 1.485 5.94 1.485 12 3 C12 3.33 12 3.66 12 4 C10.02 4 8.04 4 6 4 C5.67 4.66 5.34 5.32 5 6 C3.35 4.02 1.7 2.04 0 0 Z " fill="#4A4A4A" transform="translate(123,367)"/>
<path d="M0 0 C1.48646448 3.86480765 0.29267676 6.19800953 -1 10 C-1.16798469 13.25044709 -1.16798469 13.25044709 -1 16 C-1.99 16.33 -2.98 16.66 -4 17 C-3.71561048 15.10306139 -3.42216208 13.20747973 -3.125 11.3125 C-2.96257812 10.25675781 -2.80015625 9.20101563 -2.6328125 8.11328125 C-2.04106931 5.20205086 -1.1968194 2.71044393 0 0 Z " fill="#353032" transform="translate(330,326)"/>
<path d="M0 0 C2 2 2 2 2.08203125 4.3125 C1.99308594 5.199375 1.90414062 6.08625 1.8125 7 C1.73644531 7.886875 1.66039063 8.77375 1.58203125 9.6875 C1 12 1 12 -2 14 C-1.33333333 9.33333333 -0.66666667 4.66666667 0 0 Z " fill="#DAB2BF" transform="translate(98,208)"/>
<path d="M0 0 C2.475 0.99 2.475 0.99 5 2 C4.01 2.495 4.01 2.495 3 3 C2.30772968 5.80980673 2.30772968 5.80980673 1.875 9.0625 C1.70742188 10.16722656 1.53984375 11.27195312 1.3671875 12.41015625 C1.24601562 13.26480469 1.12484375 14.11945313 1 15 C0.34 15 -0.32 15 -1 15 C-0.84402344 14.16855469 -0.68804687 13.33710937 -0.52734375 12.48046875 C-0.33269531 11.39378906 -0.13804687 10.30710937 0.0625 9.1875 C0.25972656 8.10855469 0.45695312 7.02960938 0.66015625 5.91796875 C1.21580075 2.94098219 1.21580075 2.94098219 0 0 Z " fill="#4C4C4C" transform="translate(334,99)"/>
<path d="M0 0 C1.5778125 0.495 1.5778125 0.495 3.1875 1 C7.7332705 2.19233325 10.558307 2.48056433 15 1 C14.67 1.99 14.34 2.98 14 4 C13.34 4 12.68 4 12 4 C11.67 4.66 11.34 5.32 11 6 C11 5.34 11 4.68 11 4 C10.37351562 3.93941406 9.74703125 3.87882812 9.1015625 3.81640625 C8.28429687 3.73261719 7.46703125 3.64882813 6.625 3.5625 C5.40683594 3.44068359 5.40683594 3.44068359 4.1640625 3.31640625 C2 3 2 3 0 2 C0 1.34 0 0.68 0 0 Z " fill="#362D30" transform="translate(333,319)"/>
<path d="M0 0 C0.66 0.33 1.32 0.66 2 1 C1.67 1.99 1.34 2.98 1 4 C-2.0625 5.1875 -2.0625 5.1875 -5 6 C-4.67 7.32 -4.34 8.64 -4 10 C-4.66 10 -5.32 10 -6 10 C-6.375 7.8125 -6.375 7.8125 -6 5 C-4.16038352 3.00977164 -2.20813852 1.61010101 0 0 Z " fill="#E9BBCA" transform="translate(151,305)"/>
<path d="M0 0 C4.875 4.75 4.875 4.75 6 7 C3.625 7.625 3.625 7.625 1 8 C0.34 7.34 -0.32 6.68 -1 6 C-0.625 2.875 -0.625 2.875 0 0 Z " fill="#DCAFBF" transform="translate(252,191)"/>
<path d="M0 0 C0.928125 0.2784375 0.928125 0.2784375 1.875 0.5625 C4.04160178 1.23686176 4.04160178 1.23686176 6 0 C6 1.65 6 3.3 6 5 C6.66 5.33 7.32 5.66 8 6 C4 6 4 6 1.75 4.125 C0 2 0 2 0 0 Z " fill="#E9BCCB" transform="translate(254,138)"/>
<path d="M0 0 C0.99 0.33 1.98 0.66 3 1 C1.26440562 4.057952 -0.38472619 6.63379989 -3 9 C-3.66 8.67 -4.32 8.34 -5 8 C-5 7.34 -5 6.68 -5 6 C-4.34 6 -3.68 6 -3 6 C-2.67 5.01 -2.34 4.02 -2 3 C-1.34 2.34 -0.68 1.68 0 1 C0 0.67 0 0.34 0 0 Z " fill="#E7BBCA" transform="translate(375,338)"/>
<path d="M0 0 C0.99 0.33 1.98 0.66 3 1 C1.02 3.31 -0.96 5.62 -3 8 C-3.66 7.34 -4.32 6.68 -5 6 C-3.625 4 -3.625 4 -2 2 C-1.34 2 -0.68 2 0 2 C0 1.34 0 0.68 0 0 Z " fill="#E9BCCB" transform="translate(327,322)"/>
<path d="M0 0 C0.66 0 1.32 0 2 0 C2 0.66 2 1.32 2 2 C1.01 2.495 1.01 2.495 0 3 C-0.91031272 5.34386809 -0.91031272 5.34386809 -1.625 8.0625 C-1.88539063 8.98160156 -2.14578125 9.90070313 -2.4140625 10.84765625 C-2.60742188 11.55792969 -2.80078125 12.26820313 -3 13 C-3.93423645 9.98968256 -4.04449911 9.13349732 -3 6 C-3.66 5.67 -4.32 5.34 -5 5 C-4.01 4.67 -3.02 4.34 -2 4 C-0.79117904 1.99983534 -0.79117904 1.99983534 0 0 Z " fill="#676667" transform="translate(132,122)"/>
<path d="M0 0 C0.33 0.66 0.66 1.32 1 2 C-3.82142857 8.29464286 -3.82142857 8.29464286 -8 9 C-7.04270084 7.87411986 -6.08412105 6.7493285 -5.125 5.625 C-4.59132813 4.99851562 -4.05765625 4.37203125 -3.5078125 3.7265625 C-2.38567993 2.44163349 -1.20628025 1.20628025 0 0 Z " fill="#2F1F24" transform="translate(363,357)"/>
<path d="M0 0 C1.46015291 0.28241641 2.91809793 0.57626614 4.375 0.875 C5.18710937 1.03742188 5.99921875 1.19984375 6.8359375 1.3671875 C9 2 9 2 11 4 C8.03 4 5.06 4 2 4 C1.34 2.68 0.68 1.36 0 0 Z " fill="#393235" transform="translate(263,202)"/>
<path d="M0 0 C0.66 0.33 1.32 0.66 2 1 C1.4375 2.9375 1.4375 2.9375 0 5 C-3.625 5.75 -3.625 5.75 -7 6 C-6.21625 5.38125 -5.4325 4.7625 -4.625 4.125 C-2.03162353 2.10141339 -2.03162353 2.10141339 0 0 Z " fill="#DDB0BF" transform="translate(326,343)"/>
<path d="M0 0 C0 3 0 3 -1.375 4.5 C-1.91125 4.995 -2.4475 5.49 -3 6 C-3.99 7.485 -3.99 7.485 -5 9 C-5 8.34 -5 7.68 -5 7 C-5.99 6.67 -6.98 6.34 -8 6 C-5.36 4.02 -2.72 2.04 0 0 Z " fill="#585858" transform="translate(151,107)"/>
<path d="M0 0 C3.96 1.98 3.96 1.98 8 4 C8 4.33 8 4.66 8 5 C5.125 5.125 5.125 5.125 2 5 C1.34 4.34 0.68 3.68 0 3 C0 2.01 0 1.02 0 0 Z " fill="#E3B9C7" transform="translate(184,352)"/>
<path d="M0 0 C0.66 0 1.32 0 2 0 C2.33 0.66 2.66 1.32 3 2 C3.99 1.67 4.98 1.34 6 1 C5.34 3.31 4.68 5.62 4 8 C1.84622436 5.37801226 0.59927826 3.35595828 0 0 Z " fill="#EEBECE" transform="translate(360,199)"/>
<path d="M0 0 C1.65 0.99 3.3 1.98 5 3 C4.67 4.32 4.34 5.64 4 7 C2.35 5.35 0.7 3.7 -1 2 C-0.67 1.34 -0.34 0.68 0 0 Z " fill="#EEC0CF" transform="translate(162,312)"/>
<path d="M0 0 C0.6875 1.6875 0.6875 1.6875 1 4 C-0.375 6.625 -0.375 6.625 -2 9 C-2.33 9.66 -2.66 10.32 -3 11 C-3.66 11 -4.32 11 -5 11 C-3.55049545 7.2089881 -1.84827434 3.6125362 0 0 Z " fill="#C29EAA" transform="translate(356,306)"/>
<path d="M0 0 C0.66 0 1.32 0 2 0 C3.06775224 1.96466413 4.06553465 3.96855359 5 6 C4.67 6.66 4.34 7.32 4 8 C2 6.25 2 6.25 0 4 C0 2.68 0 1.36 0 0 Z " fill="#DEB4C2" transform="translate(387,177)"/>
<path d="M0 0 C0.33 0.66 0.66 1.32 1 2 C-0.98 4.64 -2.96 7.28 -5 10 C-5.66 9.67 -6.32 9.34 -7 9 C-4.69 6.03 -2.38 3.06 0 0 Z " fill="#737473" transform="translate(118,137)"/>
<path d="M0 0 C2.52588702 2.36292656 3.88820837 3.66462511 5 7 C3.68 7 2.36 7 1 7 C-1 4 -1 4 -0.625 1.8125 C-0.41875 1.214375 -0.2125 0.61625 0 0 Z " fill="#CEA7B4" transform="translate(151,320)"/>
<path d="M0 0 C1.65 1.65 3.3 3.3 5 5 C3.68 5.33 2.36 5.66 1 6 C0.01 4.68 -0.98 3.36 -2 2 C-1.34 2 -0.68 2 0 2 C0 1.34 0 0.68 0 0 Z " fill="#D8ADBC" transform="translate(171,241)"/>
<path d="M0 0 C0.66 0.99 1.32 1.98 2 3 C1.360625 3.61875 0.72125 4.2375 0.0625 4.875 C-2.03883584 6.82597612 -2.03883584 6.82597612 -3 9 C-3.66 9 -4.32 9 -5 9 C-3.7508258 5.54074837 -2.32472205 2.85306797 0 0 Z " fill="#D1A9B6" transform="translate(123,157)"/>
<path d="M0 0 C1.32 0.66 2.64 1.32 4 2 C3.34 2 2.68 2 2 2 C1.67 2.99 1.34 3.98 1 5 C-1.0625 6.1875 -1.0625 6.1875 -3 7 C-2.38722388 4.03824877 -1.74627478 2.61941217 0 0 Z " fill="#676767" transform="translate(371,368)"/>
<path d="M0 0 C2.46800047 1.15173355 4.04783565 2.04783565 6 4 C5.01 4.99 4.02 5.98 3 7 C1.79371992 4.66785852 0.8345262 2.50357861 0 0 Z " fill="#E4B8C7" transform="translate(184,256)"/>
<path d="M0 0 C1.74834267 2.622514 2.51529754 3.99484478 3 7 C2.67 7.66 2.34 8.32 2 9 C1.34 9 0.68 9 0 9 C0 6.03 0 3.06 0 0 Z " fill="#3C3034" transform="translate(360,200)"/>
<path d="M0 0 C1 4 1 4 1 7 C1.66 7.66 2.32 8.32 3 9 C1.35 9 -0.3 9 -2 9 C-1.34 6.03 -0.68 3.06 0 0 Z " fill="#636263" transform="translate(84,200)"/>
<path d="M0 0 C0.33 0 0.66 0 1 0 C1.36923077 5.53846154 1.36923077 5.53846154 -0.5 7.875 C-1.2425 8.431875 -1.2425 8.431875 -2 9 C-1.125 2.25 -1.125 2.25 0 0 Z " fill="#C6A3AF" transform="translate(104,191)"/>
<path d="M0 0 C0.66 0 1.32 0 2 0 C2.66 2.97 3.32 5.94 4 9 C0.06153846 5.67692308 0.06153846 5.67692308 -0.25 2.25 C-0.1675 1.5075 -0.085 0.765 0 0 Z " fill="#D0A5B3" transform="translate(147,194)"/>
<path d="M0 0 C2.31 0.33 4.62 0.66 7 1 C7 2.65 7 4.3 7 6 C5.83054208 5.19152271 4.66449539 4.37810888 3.5 3.5625 C2.8503125 3.11003906 2.200625 2.65757812 1.53125 2.19140625 C1.0259375 1.79824219 0.520625 1.40507812 0 1 C0 0.67 0 0.34 0 0 Z " fill="#E7B9C9" transform="translate(166,183)"/>
<path d="M0 0 C0.66 0.33 1.32 0.66 2 1 C1.67 1.66 1.34 2.32 1 3 C0.77532169 4.53668865 0.59203195 6.07968054 0.4375 7.625 C0.35371094 8.44226563 0.26992187 9.25953125 0.18359375 10.1015625 C0.12300781 10.72804687 0.06242188 11.35453125 0 12 C-0.33 12 -0.66 12 -1 12 C-1.22162329 10.37675914 -1.42689803 8.751279 -1.625 7.125 C-1.74101562 6.22007812 -1.85703125 5.31515625 -1.9765625 4.3828125 C-1.98429688 3.59648437 -1.99203125 2.81015625 -2 2 C-1.34 1.34 -0.68 0.68 0 0 Z " fill="#E3BCC9" transform="translate(148,180)"/>
<path d="M0 0 C3.465 1.98 3.465 1.98 7 4 C5.625 5.5 5.625 5.5 4 7 C3.34 7 2.68 7 2 7 C1.34 4.69 0.68 2.38 0 0 Z " fill="#E2B6C5" transform="translate(336,119)"/>
</svg>
