<?xml version="1.0" encoding="UTF-8"?>
<svg version="1.1" xmlns="http://www.w3.org/2000/svg" width="500" height="500">
<path d="M0 0 C0.67478394 -0.0054483 1.34956787 -0.01089661 2.0447998 -0.01651001 C15.2753789 -0.09589992 28.10492731 1.18711209 40.9375 4.5 C42.2044873 4.8242395 42.2044873 4.8242395 43.49707031 5.1550293 C62.62221007 10.22937824 83.60876883 19.62633903 98.9375 32.25 C100.47647918 33.46175437 102.01805165 34.67022414 103.5625 35.875 C104.31789063 36.46539062 105.07328125 37.05578125 105.8515625 37.6640625 C107.50282945 38.91952015 109.21155081 40.0993672 110.9375 41.25 C110.9375 41.91 110.9375 42.57 110.9375 43.25 C111.7728125 43.5903125 111.7728125 43.5903125 112.625 43.9375 C115.59909588 45.62550036 117.65758865 47.71676517 119.9375 50.25 C119.9375 50.91 119.9375 51.57 119.9375 52.25 C121.2575 52.91 122.5775 53.57 123.9375 54.25 C123.9375 54.91 123.9375 55.57 123.9375 56.25 C124.5975 56.25 125.2575 56.25 125.9375 56.25 C127.6640625 58.1484375 127.6640625 58.1484375 129.5625 60.625 C130.50996094 61.84316406 130.50996094 61.84316406 131.4765625 63.0859375 C132.9375 65.25 132.9375 65.25 132.9375 67.25 C133.5975 67.25 134.2575 67.25 134.9375 67.25 C135.5975 69.23 136.2575 71.21 136.9375 73.25 C137.5975 73.25 138.2575 73.25 138.9375 73.25 C150.07077579 89.13748544 157.62795314 108.20174041 162.6875 126.8125 C162.88625732 127.53091064 163.08501465 128.24932129 163.28979492 128.98950195 C166.40945977 141.04962079 167.27374333 153.20655167 167.19824219 165.60180664 C167.1875211 167.68340268 167.19821965 169.76413283 167.2109375 171.84570312 C167.22687758 185.07849879 166.07609512 198.03987818 162.1875 210.75 C161.79389282 212.07354492 161.79389282 212.07354492 161.39233398 213.42382812 C154.93253893 234.75213981 145.34256465 256.00285503 130.9375 273.25 C130.2775 273.25 129.6175 273.25 128.9375 273.25 C128.4734375 274.178125 128.4734375 274.178125 128 275.125 C127.3125 276.5 126.625 277.875 125.9375 279.25 C125.2775 279.25 124.6175 279.25 123.9375 279.25 C123.628125 280.0853125 123.628125 280.0853125 123.3125 280.9375 C121.42620368 284.10990745 118.78265195 285.92742698 115.9375 288.25 C114.93176222 289.57901064 113.92954592 290.91073801 112.9375 292.25 C112.2775 292.25 111.6175 292.25 110.9375 292.25 C110.9375 292.91 110.9375 293.57 110.9375 294.25 C107.47596154 297.25 107.47596154 297.25 104.9375 297.25 C104.9375 297.91 104.9375 298.57 104.9375 299.25 C100.79997269 302.51397408 96.33951923 305.35514887 91.9375 308.25 C90.89464844 308.93964844 89.85179687 309.62929688 88.77734375 310.33984375 C75.68962781 318.69546518 61.81683038 324.84306457 46.9375 329.25 C45.70257813 329.61996094 44.46765625 329.98992187 43.1953125 330.37109375 C29.61710985 334.22436747 16.22202005 335.5935534 2.15844727 335.51074219 C0.00443285 335.50002206 -2.14874488 335.51071661 -4.30273438 335.5234375 C-17.7439657 335.5391998 -30.83805142 334.39297019 -43.75 330.4375 C-44.64227295 330.17179199 -45.5345459 329.90608398 -46.45385742 329.63232422 C-63.21273789 324.55774068 -80.61908786 317.37133048 -95.0625 307.25 C-95.0625 306.59 -95.0625 305.93 -95.0625 305.25 C-97.0425 304.59 -99.0225 303.93 -101.0625 303.25 C-101.0625 302.59 -101.0625 301.93 -101.0625 301.25 C-102.2690625 300.8478125 -102.2690625 300.8478125 -103.5 300.4375 C-104.345625 300.045625 -105.19125 299.65375 -106.0625 299.25 C-106.5575 297.765 -106.5575 297.765 -107.0625 296.25 C-109.56697516 295.03130071 -109.56697516 295.03130071 -112.0625 294.25 C-112.0625 293.59 -112.0625 292.93 -112.0625 292.25 C-113.3825 291.59 -114.7025 290.93 -116.0625 290.25 C-116.0625 289.59 -116.0625 288.93 -116.0625 288.25 C-116.619375 288.04375 -117.17625 287.8375 -117.75 287.625 C-120.35434949 286.07646787 -121.91587694 284.17655814 -123.78125 281.81640625 C-125.18004848 280.04633206 -125.18004848 280.04633206 -127.5 277.875 C-131.9539059 273.31246225 -136.13356184 268.42260212 -138.0625 262.25 C-138.7225 262.25 -139.3825 262.25 -140.0625 262.25 C-140.7225 260.27 -141.3825 258.29 -142.0625 256.25 C-142.7225 256.25 -143.3825 256.25 -144.0625 256.25 C-149.81362223 245.80851808 -155.01305057 235.48663014 -159.0625 224.25 C-159.50335938 223.05761719 -159.94421875 221.86523438 -160.3984375 220.63671875 C-169.92271072 192.84315781 -170.97430618 161.91942079 -165.0625 133.25 C-164.8456958 132.14011719 -164.8456958 132.14011719 -164.62451172 131.0078125 C-160.81605005 111.77571368 -152.7805257 93.6422746 -142.0625 77.25 C-141.38083206 75.92427339 -140.7104224 74.59254191 -140.0625 73.25 C-139.4025 73.25 -138.7425 73.25 -138.0625 73.25 C-137.835625 72.569375 -137.60875 71.88875 -137.375 71.1875 C-135.75023854 67.5511291 -133.73446743 64.22170737 -131.0625 61.25 C-130.4025 61.25 -129.7425 61.25 -129.0625 61.25 C-128.4025 59.6 -127.7425 57.95 -127.0625 56.25 C-126.4025 56.25 -125.7425 56.25 -125.0625 56.25 C-125.0625 55.59 -125.0625 54.93 -125.0625 54.25 C-124.4025 54.25 -123.7425 54.25 -123.0625 54.25 C-123.0625 53.59 -123.0625 52.93 -123.0625 52.25 C-122.4025 52.25 -121.7425 52.25 -121.0625 52.25 C-120.794375 51.610625 -120.52625 50.97125 -120.25 50.3125 C-119.0625 48.25 -119.0625 48.25 -116.0625 47.25 C-116.0625 46.59 -116.0625 45.93 -116.0625 45.25 C-115.4025 45.25 -114.7425 45.25 -114.0625 45.25 C-114.0625 44.59 -114.0625 43.93 -114.0625 43.25 C-113.4025 43.25 -112.7425 43.25 -112.0625 43.25 C-112.0625 42.59 -112.0625 41.93 -112.0625 41.25 C-111.258125 40.981875 -110.45375 40.71375 -109.625 40.4375 C-108.779375 40.045625 -107.93375 39.65375 -107.0625 39.25 C-106.7325 38.26 -106.4025 37.27 -106.0625 36.25 C-104.06640625 34.64453125 -104.06640625 34.64453125 -101.625 33.0625 C-100.82191406 32.53269531 -100.01882812 32.00289062 -99.19140625 31.45703125 C-97.0625 30.25 -97.0625 30.25 -95.0625 30.25 C-95.0625 29.59 -95.0625 28.93 -95.0625 28.25 C-93.43442101 27.18833311 -91.75985733 26.19697195 -90.0625 25.25 C-89.37671875 24.81300781 -88.6909375 24.37601563 -87.984375 23.92578125 C-61.18952793 7.10671357 -31.35480111 0.15359402 0 0 Z " fill="#EC76B6" transform="translate(246.0625,77.75)"/>
<path d="M0 0 C1.0209375 -0.01160156 1.0209375 -0.01160156 2.0625 -0.0234375 C4.58754151 0.49582507 5.46812693 1.32313332 7 3.375 C8.43843432 15.70443702 3.37324209 27.51191903 -2.31640625 38.15625 C-4.05818203 41.37422087 -4.05818203 41.37422087 -5.45703125 44.859375 C-7.05650493 48.50374541 -8.95752891 51.80192259 -11.125 55.125 C-11.7137793 56.03233887 -11.7137793 56.03233887 -12.31445312 56.95800781 C-16.1501364 62.76659038 -20.4355381 68.12111416 -25 73.375 C-26.11375 74.67244141 -26.11375 74.67244141 -27.25 75.99609375 C-32.14389601 81.57819389 -37.33040932 86.58783589 -43 91.375 C-43.94875 92.2 -44.8975 93.025 -45.875 93.875 C-48 95.375 -48 95.375 -51 95.375 C-51 96.035 -51 96.695 -51 97.375 C-65.2347371 107.66089807 -81.52358239 114.44214349 -98.375 119 C-99.12934326 119.20641113 -99.88368652 119.41282227 -100.66088867 119.62548828 C-111.71252423 122.51362402 -122.65170139 123.74518096 -134.0625 123.6875 C-135.22410645 123.68258545 -136.38571289 123.6776709 -137.58251953 123.67260742 C-144.90447247 123.57453208 -152.11789727 123.17781845 -159.375 122.1875 C-160.18203369 122.08671143 -160.98906738 121.98592285 -161.82055664 121.88208008 C-166.9729772 121.05749289 -169.68144637 119.64634149 -173 115.375 C-173.83700493 111.35737632 -173.33351744 109.89751066 -171.125 106.4375 C-167.12380123 103.79670881 -164.90953098 104.19698475 -160.3046875 104.8828125 C-158 105.375 -158 105.375 -155 106.375 C-152.50258927 106.50783125 -150.03394186 106.58651819 -147.53515625 106.61328125 C-146.79434814 106.62316574 -146.05354004 106.63305023 -145.2902832 106.64323425 C-113.39327245 106.98055846 -84.51230081 102.13671226 -58.5078125 82.109375 C-56 80.375 -56 80.375 -53.3046875 79.390625 C-50.45323615 78.13405322 -50.22990058 77.15135784 -49 74.375 C-47.23046875 72.62890625 -47.23046875 72.62890625 -45.1875 70.9375 C-39.77128091 66.42223805 -35.2399604 61.65244505 -31.1875 55.875 C-30.75735596 55.26333984 -30.32721191 54.65167969 -29.8840332 54.02148438 C-28.57780421 52.14696251 -27.28571399 50.26364199 -26 48.375 C-25.6184375 47.81683594 -25.236875 47.25867188 -24.84375 46.68359375 C-19.41060822 38.63090147 -15.97969205 30.58807082 -13 21.375 C-12.46877209 19.954386 -11.92896583 18.53690265 -11.375 17.125 C-9.97813972 13.31538106 -8.87784653 9.49516809 -7.84375 5.57421875 C-6.27809701 1.49337324 -4.37658229 -0.04973389 0 0 Z " fill="#080206" transform="translate(353,214.625)"/>
<path d="M0 0 C5.45194854 2.33871887 10.04610545 5.568756 14 10 C14 10.66 14 11.32 14 12 C14.99 12.33 15.98 12.66 17 13 C22.98585432 22.65656906 26.43507553 32.59336872 25 44 C23.37152789 48.77358992 21.29058938 52.03205796 17.25 55.0625 C11.4693423 56.72999741 6.41543237 56.94120802 0.875 54.375 C-0.43828233 53.61973289 -1.73109569 52.8276598 -3 52 C-3.58523437 51.62230469 -4.17046875 51.24460937 -4.7734375 50.85546875 C-12.46944898 45.09216604 -17.93753428 35.23582212 -20 26 C-21.55788446 11.03532141 -21.55788446 11.03532141 -17.1875 5.125 C-12.1130326 -0.46317892 -7.2728397 -1.10136998 0 0 Z " fill="#040103" transform="translate(176,206)"/>
<path d="M0 0 C9.65036852 6.37373176 16.62584691 15.85800949 20.26953125 26.7890625 C20.41831036 29.3869747 20.5005636 31.94049399 20.51953125 34.5390625 C20.54015625 35.23 20.56078125 35.9209375 20.58203125 36.6328125 C20.62049133 41.74800278 19.65376722 45.24712129 17.26953125 49.7890625 C12.73105151 53.99545836 9.39673549 55.44401638 3.265625 55.390625 C-4.21358127 53.888933 -11.4915416 47.77808413 -16.23046875 41.9765625 C-17.11239548 40.61091233 -17.94420704 39.21194256 -18.73046875 37.7890625 C-19.21257812 36.95246094 -19.6946875 36.11585938 -20.19140625 35.25390625 C-24.43779974 26.72592816 -25.42177888 17.1593904 -23.73046875 7.7890625 C-22.27477632 4.41822473 -20.66584934 2.01023856 -17.73046875 -0.2109375 C-11.93336443 -2.14330561 -5.66062922 -2.51043642 0 0 Z " fill="#050103" transform="translate(270.73046875,156.2109375)"/>
<path d="M0 0 C0.33 0 0.66 0 1 0 C1.33 18.15 1.66 36.3 2 55 C1.01 55.495 1.01 55.495 0 56 C-2.10655009 47.77773672 -2.30948217 39.83102795 -2.25 31.375 C-2.24822754 30.71546326 -2.24645508 30.05592651 -2.24462891 29.37640381 C-2.21326168 19.44535935 -1.75027771 9.78280222 0 0 Z " fill="#E89CC5" transform="translate(80,215)"/>
<path d="M0 0 C0 0.66 0 1.32 0 2 C-15.51 2.33 -31.02 2.66 -47 3 C-47 3.66 -47 4.32 -47 5 C-48.98 5 -50.96 5 -53 5 C-53 5.66 -53 6.32 -53 7 C-55.31 6.67 -57.62 6.34 -60 6 C-43.39447407 -3.68655679 -18.50389528 -0.21884156 0 0 Z " fill="#E8A7CB" transform="translate(262,78)"/>
<path d="M0 0 C-11.43874563 7.62583042 -28.51596477 6.38797601 -41.75 6.375 C-42.541716 6.37663147 -43.33343201 6.37826294 -44.1491394 6.37994385 C-46.44873907 6.37940823 -48.74742935 6.36159951 -51.046875 6.3359375 C-51.72966019 6.33354065 -52.41244537 6.3311438 -53.11592102 6.32867432 C-58.03690664 6.23427452 -62.29253522 5.31564913 -67 4 C-67 3.67 -67 3.34 -67 3 C-65.18757948 2.97312721 -63.37504767 2.95366285 -61.5625 2.9375 C-60.55316406 2.92589844 -59.54382813 2.91429687 -58.50390625 2.90234375 C-56 3 -56 3 -55 4 C-39.79608991 5.09472985 -24.74236219 4.51723897 -9.94140625 0.875 C-6.57127012 0.04840853 -3.48422773 -0.17669618 0 0 Z " fill="#D276A6" transform="translate(257,316)"/>
<path d="M0 0 C0.33 0 0.66 0 1 0 C2.93118649 14.85675148 2.93118649 14.85675148 -0.125 19.3125 C-4.97410129 23.84535555 -8.77048499 24.24728065 -15.3125 24.125 C-16.56675781 24.10695312 -17.82101562 24.08890625 -19.11328125 24.0703125 C-20.06589844 24.04710937 -21.01851563 24.02390625 -22 24 C-22 23.01 -22 22.02 -22 21 C-21.34 21.33 -20.68 21.66 -20 22 C-15.07813166 22.53998915 -11.10587682 22.50267128 -6.5625 20.4375 C-0.5333608 14.70246515 -0.41496927 7.91303463 0 0 Z " fill="#D279A6" transform="translate(291,188)"/>
<path d="M0 0 C0.66 0 1.32 0 2 0 C-0.08387826 10.05037118 -4.49083235 18.86384796 -9 28 C-9.33 28 -9.66 28 -10 28 C-10 25.03 -10 22.06 -10 19 C-8.68 18.67 -7.36 18.34 -6 18 C-5.8453125 16.7934375 -5.8453125 16.7934375 -5.6875 15.5625 C-4.84899627 11.21752614 -3.47178341 7.16542473 -2 3 C-1.34 3 -0.68 3 0 3 C0 2.01 0 1.02 0 0 Z " fill="#E89CC4" transform="translate(403,297)"/>
<path d="M0 0 C1.65 0 3.3 0 5 0 C3.53145801 3.65129291 1.6053903 5.28955143 -1.5625 7.5625 C-5.19897414 10.06734287 -5.19897414 10.06734287 -7 14 C-7.99 14.495 -7.99 14.495 -9 15 C-9.66 15.99 -10.32 16.98 -11 18 C-11.75 16.3125 -11.75 16.3125 -12 14 C-10.1875 11.25 -10.1875 11.25 -8 9 C-7.34 9 -6.68 9 -6 9 C-5.34 7.35 -4.68 5.7 -4 4 C-3.34 4 -2.68 4 -2 4 C-2 3.34 -2 2.68 -2 2 C-1.34 2 -0.68 2 0 2 C0 1.34 0 0.68 0 0 Z " fill="#E796BF" transform="translate(123,130)"/>
<path d="M0 0 C0.87785156 0.10699219 1.75570312 0.21398437 2.66015625 0.32421875 C3.53542969 0.42347656 4.41070312 0.52273438 5.3125 0.625 C7.72265625 1.01171875 7.72265625 1.01171875 10.72265625 2.01171875 C13.16046002 2.16441056 15.57549526 2.26854572 18.015625 2.328125 C18.72165359 2.3489061 19.42768219 2.36968719 20.15510559 2.39109802 C22.40669176 2.45639366 24.65839287 2.51538522 26.91015625 2.57421875 C28.43816285 2.617423 29.96615789 2.66103791 31.49414062 2.70507812 C35.23686187 2.81205449 38.97969855 2.91337797 42.72265625 3.01171875 C42.72265625 3.34171875 42.72265625 3.67171875 42.72265625 4.01171875 C37.79713367 4.06166165 32.87176289 4.09769165 27.94604492 4.12158203 C26.27512032 4.13155578 24.60421278 4.14513965 22.93334961 4.16259766 C13.6612289 4.25695626 4.79219781 4.25726889 -4.27734375 2.01171875 C-2.27734375 0.01171875 -2.27734375 0.01171875 0 0 Z " fill="#411C32" transform="translate(187.27734375,318.98828125)"/>
<path d="M0 0 C5.43652955 0.46072284 8.30329248 1.18197549 13 4 C15.25076001 4.78895339 17.52364958 5.51702866 19.8125 6.1875 C20.97394531 6.53167969 22.13539063 6.87585938 23.33203125 7.23046875 C24.21246094 7.48441406 25.09289062 7.73835938 26 8 C25.67 8.66 25.34 9.32 25 10 C20.54639222 9.39634834 16.67956212 8.26697083 12.5 6.625 C11.4171875 6.20476562 10.334375 5.78453125 9.21875 5.3515625 C6.06861771 4.02881277 3.03654859 2.56400545 0 1 C0 0.67 0 0.34 0 0 Z " fill="#E6A3C8" transform="translate(173,396)"/>
<path d="M0 0 C3.25129538 2.67350494 4.64279401 6.15744514 6.25 9.9375 C6.53101563 10.55818359 6.81203125 11.17886719 7.1015625 11.81835938 C8.26797597 14.52940456 9.07032795 16.47672655 8.671875 19.44140625 C8.45015625 19.95574219 8.2284375 20.47007812 8 21 C6.5393715 18.35261084 6 17.10551666 6 14 C5.34 14 4.68 14 4 14 C1.90649311 10.5980513 1.82057837 7.94727588 2 4 C1.34 4 0.68 4 0 4 C0 2.68 0 1.36 0 0 Z " fill="#E7A2C8" transform="translate(394,169)"/>
<path d="M0 0 C2.16786283 2.52917331 3.8554141 4.62577767 5.0625 7.75 C5.371875 8.4925 5.68125 9.235 6 10 C6.99 10.33 7.98 10.66 9 11 C9.33 11.99 9.66 12.98 10 14 C4.25 13.125 4.25 13.125 2 12 C0.96197813 8.07858405 0.5510927 4.01510396 0 0 Z " fill="#DD76AD" transform="translate(160,242)"/>
<path d="M0 0 C0.33 0.66 0.66 1.32 1 2 C1.66 2 2.32 2 3 2 C4.7265625 3.8984375 4.7265625 3.8984375 6.625 6.375 C7.25664062 7.18710938 7.88828125 7.99921875 8.5390625 8.8359375 C10 11 10 11 10 13 C10.66 13 11.32 13 12 13 C11.67 13.66 11.34 14.32 11 15 C10.34 14.67 9.68 14.34 9 14 C8.67 14.66 8.34 15.32 8 16 C8 14.68 8 13.36 8 12 C7.360625 11.773125 6.72125 11.54625 6.0625 11.3125 C4 10 4 10 3.25 7.375 C3.1675 6.59125 3.085 5.8075 3 5 C2.01 4.67 1.02 4.34 0 4 C0 2.68 0 1.36 0 0 Z " fill="#E7A0C5" transform="translate(369,132)"/>
<path d="M0 0 C-0.99 0.33 -1.98 0.66 -3 1 C-3 1.66 -3 2.32 -3 3 C-4.65 3 -6.3 3 -8 3 C-8 3.66 -8 4.32 -8 5 C-9.62318979 5.36237263 -11.2486358 5.71465157 -12.875 6.0625 C-13.77992188 6.25972656 -14.68484375 6.45695312 -15.6171875 6.66015625 C-18 7 -18 7 -20 6 C-18.41925436 5.18247697 -16.83528777 4.37118003 -15.25 3.5625 C-14.36828125 3.11003906 -13.4865625 2.65757813 -12.578125 2.19140625 C-8.2329422 0.18340511 -4.78192259 -0.10868006 0 0 Z " fill="#EB96C4" transform="translate(193,88)"/>
<path d="M0 0 C0.66 0.66 1.32 1.32 2 2 C1.44444444 6.55555556 1.44444444 6.55555556 0 8 C-0.04092937 10.33297433 -0.04241723 12.66705225 0 15 C-0.99 15.33 -1.98 15.66 -3 16 C-3.33 16.66 -3.66 17.32 -4 18 C-3.65226572 11.36906706 -3.03910346 5.946072 0 0 Z " fill="#E696C0" transform="translate(88,187)"/>
<path d="M0 0 C0.33 0.66 0.66 1.32 1 2 C-0.21484375 4.3828125 -0.21484375 4.3828125 -1.9375 7.125 C-2.50339844 8.03507812 -3.06929688 8.94515625 -3.65234375 9.8828125 C-4.09707031 10.58148438 -4.54179687 11.28015625 -5 12 C-6.55078125 10.234375 -6.55078125 10.234375 -8 8 C-7.1875 4.25 -7.1875 4.25 -6 1 C-5.67 1.99 -5.34 2.98 -5 4 C-3.01508358 3.73323796 -3.01508358 3.73323796 -1 3 C-0.67 2.01 -0.34 1.02 0 0 Z " fill="#DB73A9" transform="translate(330,256)"/>
<path d="M0 0 C2.91612455 4.37418682 3.17174218 7.78281185 3.25 13 C3.27578125 14.03125 3.3015625 15.0625 3.328125 16.125 C3 19 3 19 0 23 C0 15.41 0 7.82 0 0 Z " fill="#280919" transform="translate(198,231)"/>
<path d="M0 0 C0.99 0.33 1.98 0.66 3 1 C2.67 3.97 2.34 6.94 2 10 C2.66 10 3.32 10 4 10 C4 10.66 4 11.32 4 12 C4.66 12.33 5.32 12.66 6 13 C5.34 13 4.68 13 4 13 C3.34 14.32 2.68 15.64 2 17 C0.4943096 11.19233704 -0.21824777 6.0018137 0 0 Z " fill="#E491BC" transform="translate(81,272)"/>
<path d="M0 0 C0.33 0.99 0.66 1.98 1 3 C0.04867187 4.27230469 0.04867187 4.27230469 -0.921875 5.5703125 C-3.91196653 9.731223 -3.44352316 13.93271622 -3.25 18.875 C-3.23195312 19.75414062 -3.21390625 20.63328125 -3.1953125 21.5390625 C-3.14848379 23.6931832 -3.07674994 25.84673774 -3 28 C-5.67471978 23.98792032 -5.40341981 20.9606396 -5.4375 16.25 C-5.47037109 15.46367187 -5.50324219 14.67734375 -5.53710938 13.8671875 C-5.59359943 7.68409376 -3.98165808 4.70502408 0 0 Z " fill="#2C0C1E" transform="translate(252,157)"/>
<path d="M0 0 C0.66 0 1.32 0 2 0 C1.67386719 0.66 1.34773437 1.32 1.01171875 2 C-0.23963058 5.71056481 -0.25524013 9.13524717 -0.1875 13 C-0.18685547 13.69867188 -0.18621094 14.39734375 -0.18554688 15.1171875 C-0.15374756 18.86244 0.1110695 22.35894067 1 26 C0.01 25.67 -0.98 25.34 -2 25 C-2.05816623 21.58340509 -2.09365195 18.16693795 -2.125 14.75 C-2.14175781 13.78191406 -2.15851563 12.81382812 -2.17578125 11.81640625 C-2.18222656 10.88183594 -2.18867188 9.94726562 -2.1953125 8.984375 C-2.20578613 8.12553711 -2.21625977 7.26669922 -2.22705078 6.38183594 C-1.98293323 3.82096404 -1.28990512 2.20488971 0 0 Z " fill="#C36B99" transform="translate(157,211)"/>
<path d="M0 0 C0.33 0 0.66 0 1 0 C1.55784577 3.79335122 1.00549633 4.99183402 -1.1875 8.25 C-4.00953999 11.00932799 -5.1503925 11.78002243 -9 12 C-7 9.33333333 -5 6.66666667 -3 4 C-2.45988281 3.25234375 -1.91976563 2.5046875 -1.36328125 1.734375 C-0.91339844 1.16203125 -0.46351563 0.5896875 0 0 Z " fill="#CD71A0" transform="translate(331,283)"/>
<path d="M0 0 C2.39614126 -0.05425226 4.79103853 -0.09379027 7.1875 -0.125 C8.19780273 -0.15013672 8.19780273 -0.15013672 9.22851562 -0.17578125 C13.2526393 -0.21504099 16.4664829 -0.00964626 20 2 C20.33 2.99 20.66 3.98 21 5 C18 5 18 5 15.73828125 3.51171875 C12.32912041 1.62962853 10.05243236 1.69538084 6.1875 1.8125 C5.02605469 1.83957031 3.86460937 1.86664063 2.66796875 1.89453125 C1.78753906 1.92933594 0.90710938 1.96414062 0 2 C0 1.34 0 0.68 0 0 Z " fill="#C771A1" transform="translate(255,154)"/>
<path d="M0 0 C0.33 0.66 0.66 1.32 1 2 C-2.75 5 -2.75 5 -5 5 C-5 5.66 -5 6.32 -5 7 C-6.98 7.99 -8.96 8.98 -11 10 C-11.33 9.34 -11.66 8.68 -12 8 C-11.01 8 -10.02 8 -9 8 C-9 7.01 -9 6.02 -9 5 C-7.68 4.67 -6.36 4.34 -5 4 C-5 3.01 -5 2.02 -5 1 C-3.35 0.67 -1.7 0.34 0 0 Z " fill="#E79DC5" transform="translate(356,370)"/>
<path d="M0 0 C0.99 0 1.98 0 3 0 C1.44298069 4.67105792 -1.08447373 8.08705685 -4 12 C-5.1171875 8.28125 -5.1171875 8.28125 -4.0625 5.75 C-3.5365625 4.88375 -3.5365625 4.88375 -3 4 C-2.01 4 -1.02 4 0 4 C0 2.68 0 1.36 0 0 Z " fill="#E595BF" transform="translate(383,336)"/>
<path d="M0 0 C-3.87671106 2.67289025 -7.79267603 2.01875653 -12.25 1.625 C-12.99507812 1.56828125 -13.74015625 1.5115625 -14.5078125 1.453125 C-16.33935108 1.31223742 -18.16981352 1.15748116 -20 1 C-20 0.67 -20 0.34 -20 0 C-13.11422188 -1.01593448 -6.90188971 -0.83854735 0 0 Z " fill="#E599C2" transform="translate(233,410)"/>
<path d="M0 0 C0.33 0 0.66 0 1 0 C1.19392201 5.52677733 0.7479503 9.75614911 -1 15 C-1.66 14.34 -2.32 13.68 -3 13 C-2.64638402 8.4029922 -1.58012426 4.31900631 0 0 Z " fill="#E596C2" transform="translate(408,278)"/>
<path d="M0 0 C1.69141656 0.08963062 3.37959602 0.24577676 5.0625 0.4375 C6.44115234 0.59025391 6.44115234 0.59025391 7.84765625 0.74609375 C8.55792969 0.82988281 9.26820313 0.91367188 10 1 C9.67 1.99 9.34 2.98 9 4 C8.06027344 3.98259766 8.06027344 3.98259766 7.1015625 3.96484375 C5.87566406 3.95130859 5.87566406 3.95130859 4.625 3.9375 C3.40683594 3.92009766 3.40683594 3.92009766 2.1640625 3.90234375 C-0.04937142 3.85533666 -0.04937142 3.85533666 -2 5 C-1.125 1.125 -1.125 1.125 0 0 Z " fill="#C66F9D" transform="translate(349,212)"/>
<path d="M0 0 C0.33 0 0.66 0 1 0 C1.24878997 2.43694274 1.47463404 4.87238389 1.6875 7.3125 C1.79674805 8.34793945 1.79674805 8.34793945 1.90820312 9.40429688 C2.33135078 14.55674183 2.33135078 14.55674183 0.51953125 16.98046875 C0.01808594 17.31691406 -0.48335938 17.65335938 -1 18 C-1.66 17.67 -2.32 17.34 -3 17 C-2.690625 16.236875 -2.38125 15.47375 -2.0625 14.6875 C-0.66197419 9.82685159 -0.34020266 5.03141827 0 0 Z " fill="#AF5F89" transform="translate(291,188)"/>
<path d="M0 0 C5.53846154 0.61538462 5.53846154 0.61538462 7.875 2.5625 C8.431875 3.2740625 8.431875 3.2740625 9 4 C7.35 4.66 5.7 5.32 4 6 C4 5.34 4 4.68 4 4 C2.68 3.67 1.36 3.34 0 3 C0 2.01 0 1.02 0 0 Z " fill="#E793C0" transform="translate(321,97)"/>
<path d="M0 0 C1.32 0 2.64 0 4 0 C4 1.32 4 2.64 4 4 C4.66 4.33 5.32 4.66 6 5 C5.67 6.32 5.34 7.64 5 9 C0 3.375 0 3.375 0 0 Z " fill="#E498C0" transform="translate(113,346)"/>
<path d="M0 0 C0.33 0.66 0.66 1.32 1 2 C1.66 2.33 2.32 2.66 3 3 C2.2575 3.721875 1.515 4.44375 0.75 5.1875 C-1.69290515 7.68592573 -3.8681047 10.23643202 -6 13 C-6.66 12.67 -7.32 12.34 -8 12 C-5.36 8.04 -2.72 4.08 0 0 Z " fill="#1F0918" transform="translate(329,260)"/>
<path d="M0 0 C1.75 1.3125 1.75 1.3125 3 3 C3 3.66 3 4.32 3 5 C4.32 5.66 5.64 6.32 7 7 C2.70091749 7 0.62932713 5.2851319 -3 3 C-3.33 2.34 -3.66 1.68 -4 1 C-2.1875 0.3125 -2.1875 0.3125 0 0 Z " fill="#E797C2" transform="translate(165,388)"/>
<path d="M0 0 C0.66 0.33 1.32 0.66 2 1 C-0.66666667 3.66666667 -3.33333333 6.33333333 -6 9 C-6 8.34 -6 7.68 -6 7 C-7.32 7.33 -8.64 7.66 -10 8 C-6.97727468 4.74475735 -3.74281699 2.38179263 0 0 Z " fill="#200714" transform="translate(293,298)"/>
<path d="M0 0 C2.69648689 2.69648689 4.14784424 5.66611962 6 9 C5.34 9.66 4.68 10.32 4 11 C3.7525 10.4225 3.505 9.845 3.25 9.25 C1.83316683 6.6997003 0.12372463 4.98214299 -2 3 C-1.34 2.01 -0.68 1.02 0 0 Z " fill="#CF72A3" transform="translate(190,212)"/>
<path d="M0 0 C1.72880982 -0.05449838 3.45812712 -0.09301688 5.1875 -0.125 C6.15042969 -0.14820313 7.11335937 -0.17140625 8.10546875 -0.1953125 C11.12812778 0.0086456 13.26769985 0.73125368 16 2 C16 2.33 16 2.66 16 3 C10.21101581 3.20674944 5.57067277 2.59162079 0 1 C0 0.67 0 0.34 0 0 Z " fill="#BD6A95" transform="translate(190,319)"/>
<path d="M0 0 C2.31 0 4.62 0 7 0 C4.75043698 2.24956302 2.93676737 3.00510965 0 4.1875 C-0.886875 4.55230469 -1.77375 4.91710937 -2.6875 5.29296875 C-5 6 -5 6 -7 5 C-4 3 -4 3 -1 3 C-0.67 2.01 -0.34 1.02 0 0 Z " fill="#D275A4" transform="translate(270,308)"/>
<path d="M0 0 C0 0.66 0 1.32 0 2 C-0.66 2 -1.32 2 -2 2 C-2.33 3.32 -2.66 4.64 -3 6 C-3.639375 6.12375 -4.27875 6.2475 -4.9375 6.375 C-5.9584375 6.684375 -5.9584375 6.684375 -7 7 C-7.33 7.66 -7.66 8.32 -8 9 C-8.66 9 -9.32 9 -10 9 C-8.5124715 4.98367305 -4.56813239 0 0 0 Z " fill="#D074A3" transform="translate(315,302)"/>
<path d="M0 0 C1.32 0.66 2.64 1.32 4 2 C2.54462432 2.83848804 1.08559627 3.67063934 -0.375 4.5 C-1.59316406 5.19609375 -1.59316406 5.19609375 -2.8359375 5.90625 C-5 7 -5 7 -7 7 C-7 6.34 -7 5.68 -7 5 C-5.5459375 4.5978125 -5.5459375 4.5978125 -4.0625 4.1875 C-3.051875 3.795625 -2.04125 3.40375 -1 3 C-0.67 2.01 -0.34 1.02 0 0 Z " fill="#CC74A2" transform="translate(285,300)"/>
<path d="M0 0 C0.66 0.99 1.32 1.98 2 3 C1.34 3 0.68 3 0 3 C-0.103125 3.928125 -0.20625 4.85625 -0.3125 5.8125 C-1.0070192 9.03254358 -1.47740939 10.02579865 -4 12 C-4.33 11.34 -4.66 10.68 -5 10 C-4.00390625 7.6171875 -4.00390625 7.6171875 -2.5625 4.875 C-1.85287109 3.50988281 -1.85287109 3.50988281 -1.12890625 2.1171875 C-0.75636719 1.41851562 -0.38382812 0.71984375 0 0 Z " fill="#E8A7CB" transform="translate(94,173)"/>
<path d="M0 0 C0.99 0.33 1.98 0.66 3 1 C3 1.66 3 2.32 3 3 C4.32 3.33 5.64 3.66 7 4 C3.37 4.66 -0.26 5.32 -4 6 C-4 5.34 -4 4.68 -4 4 C-3.34 4 -2.68 4 -2 4 C-1.34 2.68 -0.68 1.36 0 0 Z " fill="#DB7AAE" transform="translate(186,315)"/>
<path d="M0 0 C0.96392528 2.99887865 1.35886391 5.08814875 0 8 C-2.5625 9.25 -2.5625 9.25 -5 10 C-5.66 9.34 -6.32 8.68 -7 8 C-6.38125 7.938125 -5.7625 7.87625 -5.125 7.8125 C-2.74397155 7.17948312 -2.74397155 7.17948312 -1.8125 4.5625 C-1.4103125 3.2940625 -1.4103125 3.2940625 -1 2 C-0.67 1.34 -0.34 0.68 0 0 Z " fill="#BA6892" transform="translate(199,252)"/>
<path d="M0 0 C-3.09902323 3.09902323 -5.39147385 2.9898579 -9.75 3.0625 C-10.8225 3.041875 -11.895 3.02125 -13 3 C-10.37358828 1.24905885 -8.89308789 0.54725362 -5.9375 -0.1875 C-5.24527344 -0.36667969 -4.55304688 -0.54585938 -3.83984375 -0.73046875 C-2 -1 -2 -1 0 0 Z " fill="#B5648E" transform="translate(266,331)"/>
<path d="M0 0 C1.98 0 3.96 0 6 0 C6.66 2.31 7.32 4.62 8 7 C7.01 6.67 6.02 6.34 5 6 C5 5.34 5 4.68 5 4 C2.525 3.01 2.525 3.01 0 2 C0 1.34 0 0.68 0 0 Z " fill="#EAA1C7" transform="translate(134,370)"/>
<path d="M0 0 C-1.231394 3.69418201 -3.20791354 5.35109746 -6 8 C-6.66 7.67 -7.32 7.34 -8 7 C-6.6875 4.0625 -6.6875 4.0625 -5 1 C-2 0 -2 0 0 0 Z " fill="#E89EC6" transform="translate(365,362)"/>
<path d="M0 0 C0 0.66 0 1.32 0 2 C-3.61973402 3.31626692 -6.09567131 4 -10 4 C-10 3.34 -10 2.68 -10 2 C-6.49223216 0.39644899 -3.85645121 -0.22036864 0 0 Z " fill="#E593BC" transform="translate(305,401)"/>
<path d="M0 0 C0 0.99 0 1.98 0 3 C-4.22857143 7 -4.22857143 7 -8 7 C-8 6.34 -8 5.68 -8 5 C-6.25 3.7109375 -6.25 3.7109375 -4 2.375 C-3.2575 1.92898438 -2.515 1.48296875 -1.75 1.0234375 C-1.1725 0.68570312 -0.595 0.34796875 0 0 Z " fill="#CD6EA0" transform="translate(299,313)"/>
<path d="M0 0 C0.87840996 3.09720845 0.99435406 4.90645403 0 8 C-0.66 8 -1.32 8 -2 8 C-2.33 8.99 -2.66 9.98 -3 11 C-3.33 10.34 -3.66 9.68 -4 9 C-3.22265625 6.8359375 -3.22265625 6.8359375 -2.0625 4.375 C-1.68222656 3.55773437 -1.30195313 2.74046875 -0.91015625 1.8984375 C-0.60980469 1.27195313 -0.30945313 0.64546875 0 0 Z " fill="#C86F9E" transform="translate(355,242)"/>
<path d="M0 0 C2.40072955 2.88087546 4.47291037 5.56404834 6 9 C4.125 8.6875 4.125 8.6875 2 8 C-0.1519437 4.77208445 -0.20086443 3.71599191 0 0 Z " fill="#CC6FA0" transform="translate(160,242)"/>
<path d="M0 0 C3.26008643 3.16952847 6.22237877 6.39937989 9 10 C4.25 8.125 4.25 8.125 2 7 C1.26924352 4.6859378 0.59861742 2.35171131 0 0 Z " fill="#BE6A96" transform="translate(253,195)"/>
<path d="M0 0 C6.625 0.75 6.625 0.75 10 3 C8.375 3.6875 8.375 3.6875 6 4 C2.75 2.5625 2.75 2.5625 0 1 C0 0.67 0 0.34 0 0 Z " fill="#E393BE" transform="translate(189,402)"/>
<path d="M0 0 C1.875 1.3125 1.875 1.3125 2.625 3.4375 C2.7075 4.05625 2.79 4.675 2.875 5.3125 C1.555 4.9825 0.235 4.6525 -1.125 4.3125 C-1.125 3.6525 -1.125 2.9925 -1.125 2.3125 C-2.445 1.6525 -3.765 0.9925 -5.125 0.3125 C-2.125 -0.6875 -2.125 -0.6875 0 0 Z " fill="#E798C2" transform="translate(152.125,380.6875)"/>
<path d="M0 0 C-0.99 0.33 -1.98 0.66 -3 1 C-3 1.66 -3 2.32 -3 3 C-5.31 3 -7.62 3 -10 3 C-10 2.34 -10 1.68 -10 1 C-6.61981469 -0.04005702 -3.5219721 -0.08004482 0 0 Z " fill="#E28FBE" transform="translate(193,88)"/>
<path d="M0 0 C2.64 0.33 5.28 0.66 8 1 C8 1.33 8 1.66 8 2 C4.7 2.66 1.4 3.32 -2 4 C-1.34 3.67 -0.68 3.34 0 3 C0 2.01 0 1.02 0 0 Z " fill="#ECA0CC" transform="translate(285,405)"/>
<path d="M0 0 C0.66 0 1.32 0 2 0 C1.42655063 2.86724686 1.1385485 3.8614515 -1 6 C-1.99 5.67 -2.98 5.34 -4 5 C-2.71937515 3.2925002 -1.38232443 1.62626404 0 0 Z " fill="#270B1A" transform="translate(162,208)"/>
<path d="M0 0 C0.66 0.66 1.32 1.32 2 2 C1.625 4.625 1.625 4.625 1 7 C0.01 7 -0.98 7 -2 7 C-1.34 4.69 -0.68 2.38 0 0 Z " fill="#EB9FC9" transform="translate(88,187)"/>
<path d="M0 0 C-2.62198774 2.15377564 -4.64404172 3.40072174 -8 4 C-8.33 3.01 -8.66 2.02 -9 1 C-5.92677456 0.08941469 -3.19902639 -0.08886184 0 0 Z " fill="#EBA2CA" transform="translate(325,393)"/>
<path d="M0 0 C0.66 0.99 1.32 1.98 2 3 C1.38125 3.28875 0.7625 3.5775 0.125 3.875 C-2.13325765 4.93720042 -2.13325765 4.93720042 -4 7 C-4.33 5.68 -4.66 4.36 -5 3 C-3.35 2.01 -1.7 1.02 0 0 Z " fill="#F090C4" transform="translate(102,320)"/>
<path d="M0 0 C0.94552734 0.16242188 0.94552734 0.16242188 1.91015625 0.328125 C2.57015625 1.318125 3.23015625 2.308125 3.91015625 3.328125 C-3.51841518 2.328125 -3.51841518 2.328125 -7.08984375 1.328125 C-5.19856033 -0.56315842 -2.51916649 0.0914398 0 0 Z " fill="#230512" transform="translate(355.08984375,214.671875)"/>
<path d="M0 0 C1.98 0.99 3.96 1.98 6 3 C6 3.33 6 3.66 6 4 C4.02 4.33 2.04 4.66 0 5 C-0.33 4.01 -0.66 3.02 -1 2 C-0.67 1.34 -0.34 0.68 0 0 Z " fill="#1C0511" transform="translate(180,209)"/>
<path d="M0 0 C2.17854707 3.2678206 3.49760034 6.38058265 5 10 C3.0625 9.5 3.0625 9.5 1 8 C0.31209578 5.30341548 0.18053536 2.7982981 0 0 Z " fill="#CF77A3" transform="translate(248,185)"/>
<path d="M0 0 C1.875 0.25 1.875 0.25 4 1 C5.25 3.0625 5.25 3.0625 6 5 C5.01 5 4.02 5 3 5 C1.3125 2.5 1.3125 2.5 0 0 Z " fill="#D46FA1" transform="translate(280,164)"/>
<path d="M0 0 C1.65 0 3.3 0 5 0 C5.66 1.98 6.32 3.96 7 6 C5.68 5.34 4.36 4.68 3 4 C3 3.34 3 2.68 3 2 C2.01 1.67 1.02 1.34 0 1 C0 0.67 0 0.34 0 0 Z " fill="#EAAECF" transform="translate(127,364)"/>
<path d="M0 0 C0.98120464 3.05263664 0.98120464 4.94736336 0 8 C-0.99 7.67 -1.98 7.34 -3 7 C-2.01 4.69 -1.02 2.38 0 0 Z " fill="#C36C9A" transform="translate(350,253)"/>
<path d="M0 0 C0.66 0.33 1.32 0.66 2 1 C1.8125 3.375 1.8125 3.375 1 6 C-1.5625 7.3125 -1.5625 7.3125 -4 8 C-2.66666667 5.33333333 -1.33333333 2.66666667 0 0 Z " fill="#EAA6CA" transform="translate(106,151)"/>
</svg>
